<?xml version="1.0"?>
<svg width="1152" height="1535.999932" xmlns="http://www.w3.org/2000/svg" xmlns:svg="http://www.w3.org/2000/svg" preserveAspectRatio="xMidYMid meet" version="1.2">

 <g class="layer">
  <title>Layer 1</title>
  <g id="75eaa82b0d">
   <path d="m559.03,81.56c-2.12,1.15 -6.74,2.15 -13.74,2.99c-3.16,0.37 -6.04,0.92 -6.41,1.21c-1.42,1.15 -7.93,2.04 -10.23,1.41c-2.27,-0.63 -13.47,1.56 -15.31,2.99c-0.41,0.32 -1.89,0.88 -3.3,1.25c-4.77,1.25 -12.79,4.38 -15.68,6.11c-1.59,0.95 -3.81,2.16 -4.93,2.68c-1.11,0.52 -2.22,1.24 -2.44,1.6c-0.49,0.8 -5.37,3.21 -6.5,3.21c-0.45,0 -1.84,1.58 -3.08,3.53c-1.24,1.94 -3.09,4.03 -4.09,4.64c-4.76,2.89 -11.64,12.68 -12.26,17.44c-0.92,7.08 -3.64,11 -6,8.64c-1.1,-1.11 -1.69,-1.22 -1.69,-0.34c0,1.01 -3.47,6.1 -4.16,6.1c-2.62,0 -11.31,15.06 -14.42,24.97c-0.77,2.47 -1.92,5.64 -2.56,7.05c-0.63,1.41 -1.77,4.72 -2.53,7.36c-0.75,2.64 -1.63,5.67 -1.95,6.72c-0.32,1.06 -0.89,3.94 -1.27,6.4c-0.37,2.47 -0.93,5.35 -1.24,6.41c-2.06,7.17 -3.51,11.61 -3.98,12.13c-0.3,0.33 -0.55,1.39 -0.55,2.35c0,0.95 -0.27,1.83 -0.61,1.95c-0.7,0.24 -2.4,11.14 -3.21,20.5c-0.29,3.41 -0.73,6.52 -0.97,6.91c-2.06,3.33 0.91,27.23 5.07,40.86c2,6.58 3.38,12.02 4.86,19.25c0.68,3.3 1.48,6.32 1.79,6.73c0.32,0.39 0.74,1.3 0.93,2c2.13,7.58 3.2,10.96 3.63,11.52c0.28,0.35 1.15,2.52 1.93,4.81c1.22,3.61 3.25,8.55 7.76,18.89c3.34,7.63 7,14.89 7.9,15.63c0.56,0.47 1.02,1.21 1.02,1.65c0,0.45 0.46,1.19 1.01,1.65c0.56,0.46 1.87,2.44 2.92,4.4c1.04,1.96 2.87,5 4.06,6.76c3.79,5.6 8.31,11.88 9.3,12.94c0.53,0.56 1.44,1.73 2.02,2.6c0.58,0.87 3.61,4.22 6.74,7.43c3.12,3.21 6.56,6.89 7.65,8.16c3.24,3.81 15.62,14.19 20.09,16.85c2.29,1.37 4.8,3.05 5.58,3.75c0.78,0.7 1.98,1.59 2.67,1.98c2.85,1.62 7.32,4.65 8.91,6.04c0.94,0.82 3.8,2.46 6.37,3.65c2.56,1.18 5.1,2.59 5.64,3.13c0.54,0.54 2.19,1.29 3.68,1.67c1.48,0.37 3.26,0.95 3.97,1.27c0.71,0.32 2.57,0.91 4.15,1.32c1.57,0.4 3.43,1.13 4.14,1.62c0.7,0.5 1.79,0.9 2.41,0.9c0.62,0 3.54,1 6.49,2.22c2.95,1.22 6.63,2.41 8.18,2.65c1.54,0.23 3.24,0.78 3.77,1.22c0.53,0.43 2.05,0.99 3.39,1.23c1.77,0.31 2.59,0.86 3.02,2c0.35,0.91 1.11,1.56 1.83,1.56c0.67,0 1.41,0.47 1.63,1.05c0.3,0.8 0.93,0.95 2.78,0.66c1.32,-0.21 3.4,-0.12 4.64,0.2c1.23,0.32 3.53,0.91 5.12,1.31c1.58,0.4 3.46,1 4.16,1.33c0.71,0.33 2.44,0.68 3.84,0.77c7.35,0.52 11.71,5.37 10.82,12.07c-0.66,4.94 -9.84,6.46 -13.38,2.22c-1.06,-1.27 -1.52,-1.42 -2.72,-0.86c-1.13,0.52 -1.71,0.42 -2.65,-0.43c-0.93,-0.84 -2.21,-1.06 -5.6,-0.95c-2.42,0.09 -9.3,0.09 -15.28,0.02c-5.99,-0.07 -11.55,-0.12 -12.35,-0.11c-0.8,0.01 -2.3,-0.41 -3.33,-0.94c-2.66,-1.38 -8.28,-1.29 -9.34,0.15c-0.78,1.07 -0.91,1.07 -2.73,0c-2.3,-1.35 -7.33,-1.49 -8.38,-0.22c-0.4,0.49 -1.3,0.74 -1.99,0.56c-0.7,-0.18 -2.23,0.13 -3.41,0.69c-1.18,0.57 -4.09,1.13 -6.46,1.25c-2.37,0.13 -4.51,0.54 -4.74,0.91c-0.23,0.37 -2.34,0.97 -4.69,1.33c-2.35,0.36 -5.02,1.16 -5.94,1.76c-0.98,0.64 -3.47,1.23 -5.98,1.41c-4.93,0.35 -7.24,2.14 -5.93,4.59c0.72,1.34 0.56,1.44 -3.66,2.29c-6.05,1.22 -1.8,3.49 6.57,3.52c6.81,0.02 8.47,0.38 8.97,1.94c0.2,0.63 1.27,1.47 2.38,1.85c1.1,0.39 2.46,1.09 3.01,1.55c0.55,0.46 2.16,1.17 3.57,1.57c6.2,1.77 5.73,1.67 11.84,2.42c1.59,0.19 3.32,0.53 3.85,0.75c0.53,0.22 1.39,0.48 1.92,0.59c0.53,0.1 2.54,0.52 4.48,0.91c3.72,0.77 10.57,1.32 15.32,1.25c1.56,-0.03 3.02,0.25 3.26,0.62c0.29,0.49 0.96,0.48 2.23,-0.01c1.01,-0.38 2.28,-0.5 2.83,-0.27c0.56,0.23 3.46,0.35 6.46,0.27c15.94,-0.45 21.58,-0.31 22.65,0.58c0.94,0.78 1.19,0.74 1.91,-0.24c0.7,-0.95 1.06,-1.01 2.27,-0.37c0.79,0.43 1.84,0.62 2.31,0.44c0.55,-0.21 0.95,0.19 1.07,1.07c0.13,0.88 0.73,1.48 1.61,1.6c1.79,0.26 2.65,4.09 3.32,14.88c0.35,5.61 0.74,7.92 1.4,8.34c0.74,0.47 0.5,0.92 -1.16,2.24c-1.15,0.91 -2.09,2.06 -2.09,2.56c0,1.15 -1.38,1.15 -8.64,0c-17.93,-2.84 -69.94,-2.46 -73.26,0.54c-0.62,0.56 -1.82,1.02 -2.67,1.03c-2.12,0.01 -3.13,0.76 -3.48,2.56c-0.16,0.84 -1.05,2.13 -1.98,2.87c-1.2,0.96 -1.75,2.07 -1.89,3.81c-0.22,2.74 -0.55,3.05 -4.36,4.17c-3.83,1.14 -4.5,1.58 -4.89,3.2c-1.4,5.96 -9.72,4.43 -29.78,-5.46c-2.46,-1.22 -4.9,-2.21 -5.41,-2.21c-0.51,0.01 -1.86,-0.88 -2.99,-1.98c-1.13,-1.1 -2.72,-2.33 -3.53,-2.73c-0.91,-0.46 -1.64,-1.57 -1.92,-2.95c-0.25,-1.22 -1.05,-2.7 -1.78,-3.3c-0.74,-0.59 -1.34,-1.54 -1.34,-2.1c0,-0.74 -0.69,-1.04 -2.56,-1.12c-1.41,-0.06 -3.04,-0.13 -3.63,-0.16c-1.58,-0.08 -1.77,1.37 -0.24,1.86c2.15,0.68 1.69,2.89 -0.61,2.89c-1.69,0 -1.92,-0.22 -1.92,-1.85c0,-4.05 -6.82,-4.74 -10.5,-1.06c-1.24,1.24 -2.53,2.27 -2.84,2.27c-0.32,0 -4.78,4.58 -9.92,10.17c-5.13,5.6 -10.52,11 -11.99,12.01c-1.46,1.01 -5.44,4.28 -8.84,7.28c-3.4,3 -8.05,6.96 -10.34,8.79c-5.36,4.29 -5.23,4.17 -10.95,10.13c-4.27,4.45 -9.26,8.91 -15.54,13.87c-1.02,0.8 -4.33,3.94 -7.37,6.98c-3.04,3.04 -6.16,5.72 -6.93,5.96c-0.78,0.23 -1.59,0.99 -1.81,1.68c-0.22,0.69 -1.31,1.73 -2.43,2.3c-3.51,1.8 -17.49,15.37 -18.88,18.33c-0.7,1.49 -1.88,3.25 -2.62,3.92c-0.74,0.67 -1.35,1.61 -1.35,2.08c0,0.47 -0.43,0.86 -0.96,0.86c-0.56,0 -0.97,0.6 -0.99,1.44c-0.01,0.8 -0.71,2.74 -1.54,4.32c-5.15,9.78 -5.01,9.26 -5.08,18.46c-0.08,9.55 0.26,10.36 4.5,10.36c1.25,0 2.57,0.5 3.26,1.24c1.86,2 5.57,-0.63 13.9,-9.85c0.93,-1.04 2.31,-2.98 3.07,-4.32c0.75,-1.34 1.82,-2.44 2.37,-2.44c0.56,0 1.37,-0.58 1.81,-1.28c0.44,-0.71 1.24,-1.28 1.78,-1.28c1.12,0 2.88,-1.59 17.5,-15.81c5.86,-5.69 11.22,-10.89 11.93,-11.55c0.7,-0.66 2.92,-2.91 4.92,-5.01c2,-2.09 6.13,-5.54 9.17,-7.65c6.66,-4.62 6.68,-4.64 14.72,-11.3c3.53,-2.93 6.93,-5.97 7.58,-6.77c0.64,-0.8 1.58,-1.46 2.08,-1.46c0.5,0 0.91,-0.24 0.91,-0.54c0,-0.9 2.77,-3.61 4.64,-4.55c0.97,-0.49 1.77,-1.13 1.77,-1.42c0,-0.29 0.24,-0.53 0.55,-0.53c0.3,0 0.42,0.68 0.26,1.52c-0.16,0.84 0.15,2.37 0.69,3.42c0.54,1.05 0.84,2.49 0.65,3.2c-0.24,0.93 0.03,1.39 0.99,1.64c1.48,0.38 1.55,0.93 1.34,11.03c-0.06,3.17 -0.34,6.05 -0.62,6.4c-1.3,1.67 -1.69,13.13 -0.47,13.89c0.58,0.36 0.59,0.77 0.04,1.65c-0.71,1.16 -0.68,5.65 0.12,15.52c1.09,13.61 1.48,115.91 0.47,124.45c-0.49,4.05 -0.48,6.85 0.02,9.76c0.79,4.64 -0.11,10.69 -2.1,14c-0.63,1.06 -1.35,3.07 -1.6,4.47c-0.25,1.39 -1.01,2.92 -1.68,3.39c-1.32,0.93 -1.63,3.33 -0.57,4.39c0.45,0.45 0.26,1.18 -0.63,2.3c-1.88,2.4 -2.78,5.05 -1.97,5.86c0.36,0.36 0.66,1.6 0.66,2.75c0,2.84 1.69,3.73 5.13,2.7c3.75,-1.12 4.08,3.18 0.78,10.09c-0.99,2.08 -0.99,2.43 0.04,5.32c0.99,2.78 1,3.3 0.13,5.38c-0.52,1.26 -0.95,2.78 -0.95,3.37c0,0.59 -0.51,1.43 -1.12,1.89c-1.29,0.93 -1.54,3.95 -1.61,18.84c-0.07,12.39 2.18,17.99 3.17,7.94c0.21,-2.08 0.78,-4.57 1.27,-5.55c0.49,-0.98 0.75,-2.02 0.57,-2.31c-0.18,-0.29 0.07,-1.07 0.56,-1.73c0.82,-1.13 0.92,-1.07 1.45,0.98c0.56,2.17 2.11,3.51 2.11,1.83c0,-1.48 3.72,-3.33 4.83,-2.41c0.51,0.42 0.93,1.17 0.93,1.65c0,0.49 0.4,0.89 0.89,0.89c0.95,0 1.95,-2.87 1.35,-3.86c-0.2,-0.32 0.35,-1.93 1.22,-3.57c1.61,-3.02 1.76,-8.37 0.3,-10.24c-0.34,-0.44 -0.06,-1.15 0.73,-1.86c1,-0.91 1.11,-1.35 0.53,-2.06c-0.59,-0.7 -0.45,-1.19 0.64,-2.28c1.12,-1.12 1.38,-1.19 1.38,-0.37c0,4.89 2.76,2.48 3.86,-3.37c0.46,-2.46 1.09,-4.61 1.38,-4.79c0.29,-0.19 0.53,-1.02 0.53,-1.86c0,-0.84 0.29,-1.7 0.64,-1.92c0.35,-0.22 0.64,-0.92 0.64,-1.56c0,-0.64 0.43,-1.52 0.96,-1.96c0.53,-0.44 0.96,-1.27 0.96,-1.85c0,-0.58 0.64,-1.33 1.41,-1.68c2.15,-0.97 7.08,-8.56 6.73,-10.37c-0.15,-0.82 -0.04,-1.65 0.25,-1.83c0.3,-0.18 1.03,-1.37 1.64,-2.64c0.6,-1.26 1.59,-2.43 2.21,-2.59c0.63,-0.17 0.97,-0.68 0.78,-1.18c-0.2,-0.54 0.55,-1.4 1.94,-2.23c1.33,-0.78 3.68,-3.4 5.62,-6.25c3.49,-5.15 5.18,-6.9 11.26,-11.64c4.3,-3.35 17.47,-16.36 20.57,-20.33c1.17,-1.49 2.42,-2.72 2.77,-2.72c0.35,0 2.03,-1.37 3.74,-3.04c1.71,-1.67 4.21,-3.96 5.56,-5.08c1.35,-1.13 3.61,-3.21 5.01,-4.64c1.4,-1.42 2.79,-2.59 3.08,-2.59c0.63,-0.02 5.87,-4.11 7.98,-6.22c0.97,-0.98 2.22,-1.48 3.68,-1.48c1.91,0 2.22,-0.21 2.22,-1.53c0,-1.09 0.45,-1.64 1.57,-1.92c0.87,-0.22 2.34,-1.4 3.28,-2.64c0.94,-1.23 1.97,-2.23 2.3,-2.23c0.33,0 1.63,-1.01 2.9,-2.24c1.27,-1.23 2.82,-2.24 3.45,-2.24c0.63,0 1.76,-0.88 2.53,-1.95c0.76,-1.07 2.32,-2.43 3.47,-3.04c1.15,-0.6 3.29,-1.93 4.75,-2.94c1.46,-1.02 3.33,-1.93 4.16,-2.02c2.88,-0.32 5.2,-2.09 6.81,-5.2c1.16,-2.26 2.03,-3.16 3.2,-3.32c0.88,-0.12 1.95,-0.51 2.37,-0.85c0.48,-0.4 1.16,-0.41 1.84,-0.03c0.73,0.41 2.08,0.21 4.29,-0.63c2.85,-1.08 3.59,-1.13 6.37,-0.41c2.05,0.52 3.48,0.59 4.11,0.19c1.57,-0.99 1.32,-1.88 -0.57,-2.09c-2.27,-0.26 -2.36,-2.2 -0.16,-3.21c1.17,-0.53 1.6,-1.22 1.6,-2.58c0,-3.01 1.4,-3.59 3.47,-1.44c1.58,1.66 1.69,2.07 1.12,4.13c-0.51,1.84 -0.4,2.74 0.53,4.57c1.31,2.57 1.64,10.84 0.55,13.69c-0.36,0.93 -0.65,5.29 -0.66,9.69c0,4.4 -0.28,10.02 -0.61,12.48c-0.33,2.47 -0.75,9.82 -0.92,16.33c-0.17,6.52 -0.58,13.43 -0.9,15.37c-0.32,1.93 -0.48,4.81 -0.36,6.4c0.23,2.92 -0.37,9.22 -1.7,17.93c-0.39,2.64 -0.83,5.66 -0.96,6.72c-0.25,2.03 -0.73,23.23 -1.1,48.34c-0.2,13.89 -1.05,30.99 -2.25,45.14c-0.27,3.24 -0.23,6.51 0.1,7.48c0.37,1.07 0.34,2.16 -0.05,2.91c-0.36,0.65 -0.64,3.48 -0.62,6.29l0.05,12.77c0.05,11.85 -0.27,17.85 -0.99,18.76c-0.46,0.57 -0.44,1.05 0.08,1.56c0.9,0.91 0.98,4.75 0.1,5.29c-0.36,0.22 -0.64,0.94 -0.64,1.61c0,0.67 -0.47,1.47 -1.05,1.79c-1.73,0.97 -1.45,6.82 0.52,10.69c0.92,1.81 1.8,4.88 2.01,7.08c0.32,3.14 1.44,5.98 5.91,15c5.37,10.81 6.43,12.32 12.01,17.09c1.34,1.14 4.05,4.18 6.02,6.74c1.97,2.57 4.83,5.92 6.36,7.45c1.54,1.53 2.8,3.05 2.8,3.37c0,0.32 0.86,1.78 1.92,3.23c1.05,1.46 1.92,3.03 1.92,3.48c0,0.46 0.58,1.24 1.3,1.74c1.28,0.9 6.39,8.81 6.39,9.9c0,0.83 4.08,5.27 4.85,5.27c0.37,0 1.15,1.01 1.74,2.24c0.58,1.23 1.35,2.24 1.71,2.24c0.79,0 4.49,6.36 4.5,7.75c0,0.56 0.53,1.5 1.18,2.09c0.65,0.59 1.57,2.28 2.03,3.78c0.47,1.49 1.35,3.29 1.95,3.99c0.6,0.7 1.55,2.18 2.11,3.28c0.55,1.11 1.45,2.18 1.99,2.38c0.54,0.21 0.99,1.12 0.99,2.02c0,0.89 1.19,3.57 2.65,5.94c3.53,5.73 5.21,9.16 9.47,19.35c1.11,2.64 2.29,5.31 2.63,5.92c0.34,0.61 0.61,1.57 0.61,2.14c0,0.57 0.47,2.01 1.03,3.21c1.83,3.85 -0.98,7.99 -9.18,13.52c-1.44,0.98 -6.24,5.3 -10.64,9.59c-4.41,4.29 -8.83,8.23 -9.82,8.75c-1.91,1.01 -12.3,10.35 -14.79,13.31c-0.81,0.97 -6,5.99 -11.53,11.15c-9.15,8.54 -12.43,11.51 -19.07,17.25c-1.23,1.05 -5.81,5.38 -10.2,9.6c-4.38,4.23 -9.11,8.41 -10.5,9.28c-1.4,0.89 -5.09,4.02 -8.19,6.97l-8.44,8c-2.98,2.83 -6.35,5.54 -10.97,8.83c-1.59,1.13 -4.72,3.86 -6.96,6.07c-2.24,2.21 -5.26,4.63 -6.72,5.37c-1.46,0.74 -3.81,2.74 -5.21,4.46c-1.41,1.71 -2.78,3.13 -3.04,3.16c-0.8,0.08 -6.95,4.01 -8.47,5.42c-2.81,2.6 -5.01,4.29 -6.79,5.21c-0.98,0.51 -3.32,2.4 -5.19,4.19c-1.88,1.81 -4.27,3.72 -5.33,4.25c-2.64,1.34 -6.73,4.71 -12.84,10.55c-11.22,10.73 -28.16,15.22 -24.85,6.59c0.22,-0.57 0.04,-1.71 -0.4,-2.53c-0.58,-1.1 -0.62,-2.05 -0.13,-3.64c0.36,-1.18 0.66,-5.75 0.65,-10.15c-0.01,-4.4 0.44,-10.59 0.99,-13.76c0.54,-3.17 1.46,-9.94 2.04,-15.05c0.58,-5.11 1.15,-9.45 1.28,-9.67c0.13,-0.21 0.83,-4.24 1.55,-8.96c0.73,-4.72 1.63,-9.45 2,-10.5c0.4,-1.12 0.8,-9.79 0.96,-20.81c0.31,-21.1 0.71,-34.11 1.2,-38.42c0.52,-4.63 -1.68,-19.07 -3.39,-22.2c-0.41,-0.77 -0.76,-2.3 -0.76,-3.4c0,-1.66 -0.36,-2.14 -2.16,-2.9c-1.21,-0.5 -2.31,-1.51 -2.52,-2.27c-1.3,-4.99 -3.38,1.96 -5.56,18.61c-0.34,2.64 -1.23,7.39 -1.97,10.56c-0.74,3.17 -1.56,8.71 -1.82,12.31c-0.43,5.93 -0.64,6.7 -2.14,8.1c-0.96,0.88 -1.83,2.54 -2.03,3.85c-0.2,1.27 -0.52,3.31 -0.71,4.53c-0.46,2.92 -2.36,7.14 -4.63,10.29c-1.02,1.4 -2.31,3.84 -2.88,5.42c-1.14,3.2 -3.69,11.31 -4.01,12.81c-0.11,0.52 -0.8,3.41 -1.52,6.4c-0.72,2.99 -1.63,7.46 -2.02,9.92c-0.39,2.47 -1.12,7.08 -1.62,10.25c-0.85,5.39 -2.28,18.27 -2.34,21.13c-0.02,0.7 -0.54,5.08 -1.17,9.72c-0.63,4.64 -0.99,9.01 -0.81,9.71c0.19,0.71 -0.13,3.34 -0.71,5.87c-0.71,3.1 -1,6.98 -0.9,12.05c0.08,4.3 -0.15,8.01 -0.54,8.75c-0.37,0.7 -1.02,3.29 -1.44,5.76c-0.45,2.65 -0.94,5.31 -1.44,7.96c-0.37,1.91 -0.78,6.8 -0.92,10.88c-0.44,12.56 -0.7,14.95 -2.14,19.25c-1.56,4.7 -3.22,11.81 -3.22,13.83c0,0.77 -0.63,1.62 -1.48,2.01c-2.61,1.19 -3.47,5.21 -3.96,18.55c-0.4,10.6 0.22,13 4.22,16.42c2.32,1.99 7.07,2.76 5.97,0.97c-0.2,-0.32 -0.63,-0.41 -0.96,-0.21c-0.33,0.21 -0.6,0.12 -0.6,-0.18c0,-0.3 1.81,-0.92 4.01,-1.37c2.2,-0.45 4.58,-1.07 5.28,-1.37c3.91,-1.68 17.63,-2.48 30.16,-1.74c6.06,0.35 8.51,0.24 11.21,-0.52c1.9,-0.53 4.89,-1.08 6.64,-1.21c1.75,-0.13 3.28,-0.55 3.41,-0.94c0.13,-0.38 1.06,-0.7 2.06,-0.7c1.01,0 2.64,-0.33 3.63,-0.73c0.99,-0.4 3.1,-0.78 4.69,-0.85c1.58,-0.08 3.79,-0.18 4.91,-0.24c1.12,-0.05 2.47,-0.53 3,-1.06c0.53,-0.53 1.56,-0.96 2.29,-0.96c0.74,0 1.84,-0.25 2.45,-0.55c2.68,-1.34 5.5,-1.94 6.52,-1.39c1.06,0.57 4.9,0.01 6.41,-0.92c0.42,-0.26 1.11,0.02 1.57,0.63c0.66,0.91 1.05,0.98 2.19,0.37c0.77,-0.41 3.34,-0.71 5.72,-0.65c2.37,0.05 4.6,0 4.96,-0.11c0.35,-0.11 2.22,0.27 4.16,0.83c5.64,1.63 11.99,2.6 14.25,2.19c1.51,-0.29 2.93,0.03 5.17,1.17c2.9,1.47 14.44,2.97 18.61,2.42c0.66,-0.09 1.59,0.16 2.07,0.55c0.47,0.4 2.53,0.72 4.56,0.72c2.02,0.01 9.02,-0.01 15.53,-0.03c6.52,-0.02 13.58,0.06 15.69,0.17c2.25,0.12 4.37,-0.12 5.12,-0.58c0.71,-0.42 2.06,-0.97 3,-1.2c0.94,-0.23 2.52,-1.07 3.52,-1.86c1,-0.79 3.18,-2.13 4.85,-2.97c1.67,-0.84 3.04,-1.81 3.04,-2.15c0,-0.34 0.47,-0.44 1.04,-0.22c0.58,0.22 1.44,0.07 1.93,-0.33c0.69,-0.57 0.87,-0.48 0.87,0.41c0,1.05 0.09,1.06 1.14,0.11c0.63,-0.57 2.42,-1.12 4,-1.23c3.68,-0.25 4.29,-2.19 1.35,-4.28c-5.28,-3.77 -9.05,-8.17 -9.05,-10.58c0,-1.29 -0.53,-3.45 -1.18,-4.8c-1.03,-2.12 -1.07,-2.66 -0.32,-4.08c0.47,-0.9 0.83,-2.31 0.8,-3.13c-0.02,-0.81 0.15,-2.13 0.4,-2.91c0.7,-2.25 -1.11,-2.42 -4,-0.37c-4.96,3.51 -9.48,7.06 -10.39,8.15c-4.62,5.57 -13.31,5.53 -11.91,-0.06c0.49,-1.96 -0.45,-2.3 -4.29,-1.58c-1.67,0.3 -4.26,0.33 -5.76,0.05c-1.55,-0.29 -5.54,-0.2 -9.26,0.21c-6.53,0.72 -12.58,0.33 -21.96,-1.42c-1.94,-0.36 -6.31,-0.94 -9.71,-1.29c-3.4,-0.35 -7.43,-1.05 -8.96,-1.55c-2.95,-0.98 -16.63,-2.16 -30.39,-2.64c-5.66,-0.19 -9.48,-0.67 -12.11,-1.5c-2.11,-0.67 -6.86,-1.99 -10.56,-2.93c-14.7,-3.77 -16.29,-4.87 -12.47,-8.63c0.93,-0.91 3.26,-4.11 5.19,-7.1c4.23,-6.58 8.53,-10.82 13.65,-13.43c1.41,-0.72 3.57,-2.24 4.79,-3.38c1.23,-1.15 3.12,-2.8 4.21,-3.68c3.26,-2.65 8.29,-7.93 8.68,-9.12c0.21,-0.62 0.76,-1.13 1.24,-1.13c0.47,0 2.41,-1.51 4.31,-3.35c1.9,-1.86 5.24,-4.93 7.42,-6.84c2.18,-1.91 3.97,-3.78 3.97,-4.16c0,-0.38 1.42,-1.66 3.16,-2.84c1.74,-1.19 3.86,-2.91 4.71,-3.84c0.86,-0.93 2.39,-2.43 3.41,-3.32c1.02,-0.89 2.87,-2.76 4.12,-4.16c1.25,-1.4 2.98,-3.14 3.84,-3.88c0.86,-0.73 3.73,-3.99 6.36,-7.23c2.64,-3.25 7.25,-7.94 10.25,-10.42c3,-2.49 5.91,-5.23 6.48,-6.08c0.57,-0.87 1.65,-2 2.41,-2.53c0.75,-0.53 1.81,-1.81 2.34,-2.85c0.54,-1.03 1.31,-1.88 1.7,-1.88c0.4,0 2.34,-1.46 4.3,-3.25c1.98,-1.79 4.02,-3.64 4.55,-4.1c0.53,-0.47 1.72,-1.2 2.65,-1.63c0.93,-0.42 1.98,-1.38 2.32,-2.14c0.35,-0.75 2.73,-2.66 5.31,-4.25c2.57,-1.58 5.64,-3.89 6.81,-5.12c4.06,-4.27 5.09,-5.45 6.64,-7.57c1.33,-1.83 8.23,-7.16 9.26,-7.16c0.66,0 10.11,-9.36 13.55,-13.44c8.49,-10.05 26.99,-28.14 30.45,-29.78c1.89,-0.89 4.82,-2.77 6.51,-4.17c1.7,-1.4 3.42,-2.56 3.82,-2.57c1.23,-0.03 13.35,-12.28 16.74,-16.91c3.94,-5.4 10.94,-12.57 13.27,-13.62c1.82,-0.81 2.08,-1.45 2.93,-7.23c1.74,-11.7 1.69,-11.78 -36.33,-61.46c-23.73,-31.01 -21.56,-28.03 -33.57,-46.1c-4.32,-6.51 -8.79,-13.47 -9.91,-15.46c-1.12,-1.98 -2.76,-4.08 -3.64,-4.65c-0.87,-0.58 -1.59,-1.33 -1.59,-1.67c0,-0.67 -0.8,-1.71 -4.23,-5.43c-1.2,-1.31 -2.35,-3.05 -2.56,-3.88c-0.21,-0.83 -0.78,-1.84 -1.28,-2.25c-2.14,-1.78 -3.74,-11.47 -1.89,-11.47c1.48,0 1.85,-1.25 1.12,-3.75c-2.98,-10.29 -3.47,-13.08 -3.56,-20.36c-0.07,-6.4 0.66,-28.45 1.2,-36.08c0.21,-2.9 0.89,-10.96 1.27,-15.05c0.16,-1.76 0.46,-6.94 0.66,-11.52c0.2,-4.58 0.61,-10.49 0.93,-13.13c0.3,-2.64 0.57,-5.23 0.59,-5.76c0.12,-4.07 1.45,-17.79 1.95,-20c0.33,-1.5 0.78,-7.19 0.99,-12.65c0.79,-20.7 1.74,-33.83 2.95,-40.98c0.39,-2.29 0.8,-9.78 0.91,-16.65c0.21,-13.65 0.69,-22.68 1.59,-30.09c0.37,-3.09 0.69,-6.18 0.96,-9.28c0.21,-2.47 0.65,-6.93 0.99,-9.93c0.33,-2.99 0.61,-5.8 0.61,-6.24c0,-0.22 0.08,-0.41 0.24,-0.57c0.15,-0.15 0.34,-0.23 0.56,-0.24c0.44,0 1.45,-1.01 2.25,-2.24c1.71,-2.64 4.08,-2.97 6.31,-0.88c0.79,0.74 3.4,2.07 5.8,2.95c7.76,2.86 10.05,3.79 15.06,6.17c2.71,1.28 5.19,2.33 5.51,2.33c1.19,0 11.66,5.21 11.66,5.8c0,0.33 0.36,0.61 0.8,0.61c0.44,0 1.61,1 2.59,2.24c0.98,1.23 2.35,2.24 3.04,2.24c0.69,0 3.98,1.87 7.31,4.16c3.33,2.29 6.36,4.16 6.72,4.16c0.18,0 0.34,0.07 0.47,0.2c0.13,0.13 0.2,0.28 0.2,0.46c0,0.36 0.5,0.85 1.12,1.08c1.61,0.61 10.49,5.94 12.01,7.22c0.7,0.59 2.72,1.89 4.48,2.89c1.76,1 5.74,3.64 8.83,5.87c3.1,2.23 5.86,4.05 6.12,4.05c0.27,0 1.48,1.04 2.69,2.31c1.22,1.26 3.94,3.63 6.05,5.25c4.23,3.25 13.99,12.03 19.12,17.21c1.81,1.83 3.58,3.59 3.93,3.91c11.63,10.64 19.77,19.78 26.32,29.52c1.08,1.62 2.45,3.34 3.04,3.82c0.58,0.49 1.06,1.13 1.06,1.44c0,0.3 1.26,2.21 2.8,4.24c1.54,2.03 3.34,5.4 4,7.49c1.27,4 5.52,9.33 7.44,9.33c1.24,0 1.2,-4.46 -0.05,-5.96c-0.44,-0.54 -1.06,-2.36 -1.38,-4.07c-0.55,-2.97 -1.11,-5.38 -2.46,-10.64c-0.34,-1.33 -0.46,-2.99 -0.28,-3.68c0.18,-0.7 0.05,-1.63 -0.29,-2.07c-0.72,-0.92 -0.68,-5.54 0.05,-6.72c0.31,-0.49 0.11,-0.96 -0.5,-1.19c-0.55,-0.21 -1,-0.99 -1,-1.73c0,-2.33 1.9,0.21 2.34,3.13c0.22,1.38 0.91,3.1 1.56,3.81c1.07,1.18 3.35,8.39 3.06,9.69c-0.06,0.29 0.35,1.59 0.93,2.88c1.59,3.58 2.08,7.6 1,8.27c-0.71,0.44 -0.74,0.8 -0.11,1.82c0.79,1.27 0.13,4.65 -1.19,6.1c-0.9,1 -0.63,1.91 0.82,2.82c1.14,0.71 1.45,0.71 1.91,0c0.4,-0.63 0.55,-0.48 0.56,0.54c0,0.77 -0.27,1.57 -0.61,1.78c-0.94,0.58 0.02,2.38 1.06,1.98c0.54,-0.21 1.59,0.44 2.54,1.56c1,1.2 2.22,1.92 3.22,1.92c1.4,0 1.56,0.21 1.22,1.6c-0.3,1.18 -0.15,1.6 0.57,1.6c0.53,0 0.97,-0.55 0.97,-1.23c0,-0.67 0.16,-1.64 0.36,-2.16c0.19,-0.51 -0.08,-1.35 -0.6,-1.88c-0.85,-0.85 -0.85,-1.12 -0.02,-2.3c0.55,-0.8 0.78,-1.98 0.55,-2.9c-0.22,-0.85 -0.08,-1.75 0.3,-1.98c1.87,-1.16 -1.19,-10.82 -4.91,-15.51c-1.8,-2.27 -1.95,-2.73 -1.12,-3.41c1.11,-0.93 1.26,-3.28 0.27,-4.27c-0.49,-0.5 -0.21,-0.81 0.95,-1.1c1.14,-0.29 1.64,-0.84 1.65,-1.84c0.01,-4.2 0.38,-5.31 2.13,-6.41c1.25,-0.79 1.73,-1.57 1.6,-2.56c-0.13,-0.91 0.13,-1.42 0.76,-1.42c1.13,-0.01 1.28,-0.34 1.28,-2.89c0,-1.28 -0.32,-1.92 -0.96,-1.92c-0.87,0 -1.02,-0.28 -0.93,-1.76c0.01,-0.26 0.59,-0.39 1.28,-0.28c0.79,0.13 1.25,-0.17 1.25,-0.8c0,-0.55 0.22,-0.97 0.48,-0.93c0.26,0.05 0.7,0.01 0.96,-0.08c0.83,-0.27 1.74,-0.47 2.47,-0.55c0.45,-0.05 0.55,-0.72 0.28,-1.8c-0.34,-1.35 -0.25,-1.57 0.41,-1.05c1.27,1 3.68,1.45 4.1,0.77c1.63,-2.64 0.61,-27.02 -1.39,-33.07c-0.62,-1.88 -0.73,-3.5 -0.37,-5.13c0.29,-1.31 0.29,-3.25 0.01,-4.3c-0.29,-1.06 -0.26,-4.37 0.07,-7.36c0.33,-3 0.78,-8.47 1.01,-12.17c0.22,-3.7 0.66,-7.73 0.96,-8.96c0.31,-1.24 0.7,-4.58 0.87,-7.43c0.43,-7.04 1.09,-11.96 1.72,-12.76c0.28,-0.37 0.53,-1.66 0.54,-2.88c0.01,-1.23 0.16,-3.37 0.32,-4.78c0.16,-1.41 0.42,-4.36 0.57,-6.56c0.15,-2.2 0.55,-4.36 0.89,-4.8c0.33,-0.44 0.67,-4.55 0.75,-9.13c0.16,-10.03 0.21,-10.51 1.22,-12.3c1.05,-1.87 1.71,-6.86 1.1,-8.32c-0.83,-1.95 -0.99,-4.67 -0.28,-4.67c0.37,0 0.54,-0.22 0.38,-0.49c-0.67,-1.08 -1.03,-9.7 -0.42,-10.08c1.09,-0.67 0.71,-2.07 -0.66,-2.43c-1.21,-0.31 -1.29,-0.79 -1.18,-6.95c0.07,-3.65 -0.06,-8.5 -0.28,-10.79c-0.23,-2.28 -0.56,-8.62 -0.75,-14.08c-0.18,-5.46 -0.47,-10.28 -0.63,-10.7c-0.16,-0.43 -0.02,-0.95 0.3,-1.15c0.32,-0.19 0.42,-0.77 0.23,-1.28c-0.2,-0.51 -0.48,-3.02 -0.62,-5.58c-0.36,-6.48 -0.58,-8.35 -1.09,-9.46c-0.78,-1.72 -0.18,-11.72 0.73,-12.03c0.46,-0.15 0.99,0.32 1.17,1.03c0.33,1.25 4.26,3.31 6.32,3.31c0.51,0 0.94,0.37 0.95,0.8c0,0.44 1.03,1.46 2.27,2.27c1.24,0.81 2.45,1.96 2.67,2.56c0.81,2.17 2.93,4.53 4.42,4.9c0.84,0.21 1.52,0.77 1.52,1.23c0,0.47 2.18,3.13 4.84,5.91c7.3,7.63 8.86,9.75 11.48,15.63c0.55,1.23 1.28,2.67 1.61,3.2c0.34,0.53 1.99,3.53 3.67,6.67c5.85,10.95 12.23,14.25 17.16,8.86c4.81,-5.25 4.39,-29.73 -0.78,-45.62c-0.77,-2.37 -4.03,-6.95 -5.24,-7.36c-0.57,-0.2 -2.29,-2.08 -3.82,-4.18c-1.52,-2.11 -3.18,-3.83 -3.67,-3.83c-0.49,0 -2.05,-1.51 -3.48,-3.36c-2.61,-3.39 -4.6,-5.53 -9.91,-10.64c-1.59,-1.54 -2.9,-3.13 -2.9,-3.54c0,-0.41 -0.79,-1.5 -1.76,-2.42c-0.97,-0.92 -2.34,-2.41 -3.04,-3.32c-0.71,-0.92 -2.61,-2.68 -4.24,-3.92c-1.63,-1.25 -4.63,-4.66 -6.66,-7.59c-2.04,-2.92 -4.51,-5.78 -5.49,-6.34c-0.97,-0.56 -2.57,-2.26 -3.54,-3.79c-0.97,-1.53 -2.22,-3.31 -2.76,-3.96c-0.54,-0.65 -0.99,-1.65 -1,-2.24c0,-0.59 -0.6,-1.15 -1.32,-1.25c-1.34,-0.19 -2.82,-3.11 -2.87,-5.62c-0.02,-1.54 -2.42,-4.32 -4.79,-5.56c-1.04,-0.54 -2.08,-1.83 -2.49,-3.07c-0.91,-2.78 -3.96,-3.74 -7.12,-2.25c-1.15,0.55 -2.36,1 -2.68,1c-1.05,0 -6.21,2.67 -8.51,4.39c-1.7,1.28 -2.99,1.68 -5.37,1.69c-2.43,0 -3.29,0.28 -3.85,1.25c-0.39,0.69 -1.86,2.27 -3.26,3.52c-1.41,1.25 -3.48,3.21 -4.6,4.36c-1.12,1.14 -2.46,2.08 -2.97,2.08c-0.51,0 -1.31,0.47 -1.79,1.05c-0.48,0.57 -2,1.8 -3.39,2.72l-3.95,2.63c-0.79,0.53 -4.42,2.83 -8.06,5.12c-12.27,7.7 -18.57,11.95 -20.86,14.09c-2.27,2.12 -7.49,5.76 -8.27,5.76c-0.45,0 -1.33,0.52 -1.96,1.15c-0.63,0.62 -2.3,1.99 -3.71,3.02c-2.81,2.06 -2.98,2.19 -5.76,4.35c-4.17,3.23 -8.14,5.57 -9.48,5.57c-1.26,0.01 -4.86,2.73 -10.71,8.09c-5.38,4.94 -6.31,5.77 -7.81,7.04c-0.9,0.76 -1.73,1.62 -1.86,1.93c-0.13,0.3 -1.9,1.68 -3.92,3.05c-2.03,1.38 -3.68,2.75 -3.68,3.04c0,0.28 -0.98,1.17 -2.16,1.97c-1.19,0.79 -3.61,2.6 -5.38,4.01c-1.78,1.41 -4.7,3.43 -6.49,4.48c-1.8,1.06 -5.56,3.36 -8.36,5.13c-2.9,1.82 -5.81,3.62 -8.73,5.42c-2.01,1.22 -4.81,3.33 -6.23,4.7c-1.42,1.36 -3.18,2.74 -3.91,3.06c-2.31,1.01 -9.63,5.15 -9.97,5.63c-1.94,2.75 -7.69,4.09 -7.69,1.8c0,-0.81 -0.27,-1.75 -0.6,-2.08c-0.33,-0.34 -0.74,-2.48 -0.91,-4.77c-0.17,-2.29 -0.63,-5.17 -1.02,-6.4c-1.1,-3.51 -1.27,-9.56 -0.33,-12.21c0.46,-1.32 0.69,-2.56 0.49,-2.76c-0.19,-0.19 -0.43,-2.02 -0.53,-4.06c-0.09,-2.03 -0.34,-6.22 -0.56,-9.3c-0.34,-4.87 -0.26,-5.61 0.63,-5.61c0.57,0 1.76,-0.57 2.66,-1.28c1.71,-1.34 4.35,-1.65 5.88,-0.68c0.54,0.34 1.53,0.34 2.42,0c0.93,-0.36 3.44,-0.31 6.46,0.11c3.7,0.51 6.46,0.49 10.97,-0.11c3.31,-0.43 9.94,-0.87 14.72,-0.96c19.01,-0.38 22.48,-0.58 22.48,-1.31c0,-1.27 1.63,-2.15 4.71,-2.58c2.03,-0.28 2.97,-0.17 2.97,0.32c0,0.4 -0.41,0.73 -0.92,0.73c-1.22,0 -1.94,1.23 -1.18,2c0.76,0.76 2.75,0.05 2.75,-1c0,-0.7 2.89,-3.47 4.98,-4.75c0.98,-0.61 0.35,-2.65 -0.82,-2.65c-1.19,0 -1.69,-1.76 -1.22,-4.28c0.47,-2.52 -0.85,-3.99 -3.64,-4.02c-1.28,-0.02 -1.64,-0.34 -1.6,-1.43c0.04,-1.12 -0.44,-1.5 -2.46,-1.93c-1.38,-0.29 -2.82,-0.78 -3.2,-1.08c-1.17,-0.92 -4.79,-1.44 -13.82,-1.97c-4.75,-0.28 -13.25,-0.84 -18.89,-1.26c-5.64,-0.41 -13.85,-0.98 -18.25,-1.26c-9.86,-0.64 -18.33,-4.56 -14.7,-6.8c0.49,-0.3 0.44,-0.75 -0.15,-1.48c-2.2,-2.78 -2.56,-4.21 -2.42,-9.95c0.08,-3.21 0.13,-6.75 0.11,-7.86c-0.02,-1.5 0.3,-2.11 1.26,-2.36c0.96,-0.25 1.18,-0.66 0.87,-1.66c-0.53,-1.64 1.49,-1.84 3.75,-0.35c1.35,0.88 1.62,0.85 3.12,-0.32c1.91,-1.5 2.59,-1.58 4.35,-0.49c1.03,0.64 1.39,0.64 1.79,-0.01c0.4,-0.64 0.92,-0.61 2.49,0.18c1.61,0.8 2.73,0.87 5.87,0.37c2.13,-0.34 4.82,-0.49 5.97,-0.32c2.04,0.29 21.45,0.88 36.41,1.1c6.93,0.11 7.63,0 10.57,-1.58c3.13,-1.7 3.19,-1.7 15.49,-1.53c12.79,0.18 14.4,-0.13 11.77,-2.26c-0.76,-0.62 -1.38,-1.61 -1.38,-2.2c0,-0.59 -0.57,-1.22 -1.26,-1.41c-0.69,-0.18 -1.42,-0.82 -1.61,-1.43c-0.56,-1.75 -2.91,-3.54 -6.74,-5.14c-3.77,-1.57 -7.39,-4.21 -6.51,-4.75c0.56,-0.35 8.1,-1.55 9.71,-1.55c6.15,0.02 12.1,-0.41 13.28,-0.95c1.73,-0.78 1.89,-1.69 0.33,-1.84c-0.62,-0.06 -2.13,-0.21 -3.36,-0.32c-2.21,-0.22 -26.98,-1.58 -30.09,-1.66c-0.89,-0.02 -6.22,0.04 -11.85,0.14c-19.26,0.33 -38.55,-0.55 -43.51,-1.99c-2.44,-0.71 -5.31,-1.17 -6.38,-1.01c-1.19,0.18 -2.79,-0.19 -4.13,-0.94c-1.2,-0.68 -2.55,-1.09 -2.99,-0.91c-0.45,0.17 -0.97,-0.25 -1.14,-0.93c-0.18,-0.68 -0.75,-1.24 -1.28,-1.24c-1.17,0 -3.01,-4.41 -3,-7.21c0,-2.27 3.01,-4.95 5.54,-4.95c0.71,0 1.82,-0.58 2.47,-1.29c0.66,-0.73 1.62,-1.14 2.23,-0.95c0.58,0.18 1.71,-0.23 2.5,-0.92c0.8,-0.68 2.36,-1.44 3.47,-1.68c1.12,-0.25 2.6,-0.84 3.3,-1.32c0.69,-0.49 1.99,-0.88 2.88,-0.89c2.15,0 13.25,-3.14 22.75,-6.45c4.22,-1.48 9.84,-3.34 12.48,-4.15c2.65,-0.81 6.25,-1.94 8.01,-2.51c1.76,-0.58 4.35,-1.37 5.76,-1.76c1.41,-0.4 3.02,-1.1 3.57,-1.56c0.56,-0.47 1.48,-0.85 2.05,-0.85c0.57,0 1.19,-0.27 1.39,-0.59c0.21,-0.33 1.3,-0.79 2.45,-1.04c4.94,-1.07 8.32,-3.2 19.36,-12.14c2.82,-2.28 5.48,-4.15 5.92,-4.15c0.44,-0.01 0.8,-0.25 0.8,-0.55c0,-7.11 12.52,-10.69 19.21,-5.5c0.53,0.41 2.22,0.94 3.75,1.17c1.53,0.24 3.55,0.82 4.48,1.3c0.94,0.48 4.21,1.08 7.28,1.34c3.48,0.28 5.87,0.8 6.32,1.35c0.41,0.48 1.41,0.88 2.23,0.88c0.81,0 1.64,0.26 1.83,0.57c0.19,0.31 1.15,0.73 2.12,0.94c11.14,2.33 12.48,2.46 26.1,2.48c15.05,0.02 28.83,-0.49 37.14,-1.38c2.82,-0.31 5.7,-0.55 6.4,-0.56c3.59,0 12.16,-1.48 13.06,-2.24c0.58,-0.48 2.74,-0.92 4.88,-0.99c2.11,-0.07 4.7,-0.4 5.76,-0.74c1.05,-0.34 3.22,-0.76 4.8,-0.94c4.55,-0.52 7.03,-1.08 7.41,-1.69c0.5,-0.81 2.45,-0.7 3.33,0.18c1.72,1.72 4.41,1.23 11.17,-2.01c5.97,-2.87 5.87,-7.14 -0.15,-6.18c-1.78,0.29 -3.02,0.14 -3.88,-0.46c-0.91,-0.64 -2.01,-0.75 -3.97,-0.38c-2.49,0.47 -9.21,0.22 -11.26,-0.43c-0.7,-0.22 -0.72,-0.46 -0.07,-1.24c0.44,-0.53 0.64,-1.13 0.44,-1.33c-0.59,-0.59 -1.74,0.37 -1.74,1.44c0,1.54 -2.21,0.73 -2.44,-0.89c-0.16,-1.09 -0.63,-1.44 -1.96,-1.44c-2.39,0 -3.8,-1.22 -4.04,-3.5c-0.25,-2.35 -3,-3.66 -5.03,-2.39c-1.61,1 -1.69,0.99 -2.06,-0.41c-0.17,-0.66 -1.49,-1.74 -2.94,-2.41c-1.44,-0.66 -2.63,-1.51 -2.64,-1.89c-0.05,-1.81 -1.83,-3.2 -2.7,-2.1c-1.42,1.79 -4.81,2.16 -5.31,0.58c-0.59,-1.85 -2.66,-2.79 -5.12,-2.33c-1.14,0.22 -2.74,0.15 -3.55,-0.15c-1.03,-0.38 -2.84,-0.08 -6.12,1.04c-4.47,1.52 -4.77,1.54 -7.74,0.58c-1.7,-0.54 -5.84,-1.32 -9.18,-1.72c-3.35,-0.39 -7.9,-1.14 -10.13,-1.65c-3.07,-0.71 -6.23,-0.83 -13.15,-0.52c-7.49,0.34 -9.51,0.24 -11.33,-0.58c-1.21,-0.54 -3.65,-1.32 -5.41,-1.74c-1.77,-0.41 -3.64,-1.13 -4.16,-1.6c-0.53,-0.47 -1.69,-0.96 -2.57,-1.08c-2.3,-0.31 -2.54,-3.54 -0.45,-6.05c2.06,-2.47 4.55,-7.03 5.55,-10.17c0.45,-1.41 1.65,-3.88 2.66,-5.5c1.02,-1.62 1.85,-3.25 1.85,-3.63c0,-0.39 0.68,-1.51 1.51,-2.51c0.84,-0.99 2.3,-3.39 3.26,-5.33c0.96,-1.94 2,-4.02 2.33,-4.63c0.32,-0.61 0.58,-1.48 0.58,-1.92c0,-0.45 1.12,-2.98 2.49,-5.64c1.37,-2.66 2.83,-6.55 3.24,-8.64c0.41,-2.1 1,-4.4 1.3,-5.1c1.07,-2.46 2.52,-10.31 3.55,-19.21c1.19,-10.29 2.75,-18.93 3.58,-19.81c0.32,-0.34 0.57,-1.6 0.57,-2.81c0,-1.21 0.27,-3.24 0.59,-4.51c1.16,-4.52 2.69,-13.01 2.94,-16.28c0.15,-1.83 0.59,-4.62 0.99,-6.21c0.65,-2.57 0.5,-14.76 -0.28,-22.41c-0.13,-1.23 -0.42,-4.25 -0.66,-6.72c-0.56,-5.78 -2.09,-14.96 -3.31,-19.85c-0.54,-2.11 -1.35,-5.86 -1.81,-8.32c-2.44,-12.93 -5.11,-21.45 -6.71,-21.45c-0.85,0 -1.45,-1.84 -1.72,-5.3c-0.41,-5.29 1.87,-7.66 10.93,-11.36c2.34,-0.96 12.06,-3.32 15.89,-3.86c2.08,-0.29 4.31,-1.01 4.96,-1.6c0.8,-0.72 2.7,-1.17 5.86,-1.36c2.57,-0.15 6.26,-0.72 8.19,-1.25c6.42,-1.78 8.62,-2.23 10.74,-2.17c1.15,0.03 3.31,-0.28 4.8,-0.68c4.2,-1.14 5.37,-1.29 13.6,-1.8c11.16,-0.7 12.57,-1.75 10.17,-7.51c-2.14,-5.14 -5.84,-7.33 -14.01,-8.29c-2.12,-0.25 -4.9,-0.83 -6.19,-1.28c-1.61,-0.56 -3.5,-0.67 -5.98,-0.33c-2,0.27 -6.28,0.27 -9.5,0.01c-9.66,-0.79 -22.93,-0.63 -28.99,0.37c-3.14,0.51 -7.61,0.93 -9.95,0.94c-2.34,0 -7.02,0.58 -10.4,1.27c-3.38,0.7 -7.08,1.41 -8.23,1.57c-1.15,0.16 -3.82,0.63 -5.93,1.02c-2.12,0.4 -5.25,0.88 -6.97,1.07l-3.12,0.34l-7.12,-7.2c-3.92,-3.96 -8.14,-7.95 -9.37,-8.87c-1.23,-0.92 -2.53,-2.04 -2.88,-2.48c-0.35,-0.45 -1.39,-1.31 -2.31,-1.92c-2.48,-1.65 -9.56,-6.92 -11.92,-8.87c-2.66,-2.2 -8.11,-5.67 -11.46,-7.28c-1.45,-0.7 -3,-1.71 -3.44,-2.24c-0.44,-0.54 -1.06,-0.97 -1.38,-0.97c-0.31,0 -2.94,-1.14 -5.84,-2.52c-2.9,-1.39 -6.28,-2.98 -7.51,-3.54c-1.24,-0.55 -2.96,-1.42 -3.85,-1.91c-2.76,-1.57 -6.22,-2.92 -7.49,-2.92c-0.67,0 -1.78,-0.42 -2.47,-0.94c-0.68,-0.52 -1.82,-0.95 -2.52,-0.97c-1.46,-0.03 -5.84,-1.47 -6.5,-2.13c-0.24,-0.24 -0.84,-0.44 -1.32,-0.44c-0.49,0 -3.63,-1.03 -6.99,-2.29c-3.36,-1.26 -7.46,-2.54 -9.1,-2.85c-1.64,-0.31 -4.43,-0.85 -6.19,-1.2c-11.04,-2.2 -59.52,-4.23 -60.56,-2.53c-0.31,0.48 -0.84,0.46 -1.83,-0.07c-1.43,-0.77 -4.86,-0.38 -6.21,0.71c-0.43,0.34 -1.39,0.32 -2.4,-0.06c-0.93,-0.36 -3.34,-0.66 -5.37,-0.68c-5.15,-0.06 -20.39,0.06 -23.84,0.19c-1.59,0.05 -4.04,-0.11 -5.45,-0.35c-1.71,-0.3 -3.09,-0.17 -4.16,0.41m49.73,39.6c-0.41,0.26 -3.34,0.48 -6.51,0.48c-3.17,0.01 -6.71,0.29 -7.87,0.62c-1.17,0.33 -4.7,0.76 -7.87,0.96c-3.19,0.19 -6.6,0.78 -7.62,1.31c-1.03,0.53 -2.9,0.97 -4.17,0.97c-1.27,0 -3.18,0.45 -4.24,1c-1.75,0.9 -2.09,0.9 -3.45,0.01c-1.32,-0.86 -1.78,-0.87 -3.65,-0.09c-1.18,0.49 -5.26,1.64 -9.07,2.56c-3.81,0.92 -7.98,2.12 -9.27,2.67c-4.38,1.86 -10.66,3.96 -13.2,4.4c-6,1.04 -11.93,4.66 -24.68,15.08c-2.64,2.16 -6.24,4.79 -8,5.84c-9.62,5.75 -17.73,13.21 -20.77,19.1c-0.91,1.75 -2.73,4.35 -4.05,5.78c-3.4,3.68 -6.66,10.58 -11.35,24c-4.41,12.63 -5.31,16.91 -7.38,34.89c-0.54,4.76 -1.29,9.59 -1.66,10.74c-2.22,6.92 -0.31,30.03 3.95,47.72c2.37,9.84 3.44,13.16 6,18.69c0.49,1.06 1.67,3.8 2.62,6.09c0.95,2.29 2.38,5.31 3.18,6.72c0.79,1.41 2.68,4.87 4.18,7.68c3.62,6.78 12.67,20.35 16.44,24.66c0.77,0.87 3.15,3.68 5.3,6.23c5.2,6.17 25.26,26.08 28.61,28.4c1.47,1.01 3.5,2.63 4.51,3.61c3.94,3.77 16.76,13.05 21.33,15.43c9.84,5.14 12.58,6.44 16.32,7.8c2.12,0.77 4.42,1.63 5.13,1.92c11.17,4.58 39.81,10.55 40.51,8.44c0.15,-0.44 0.86,-0.61 1.67,-0.41c3.37,0.85 4.82,-0.6 4.48,-4.5c-0.3,-3.54 -0.29,-3.56 1.65,-3.95c1.62,-0.32 1.96,-0.7 1.96,-2.18c0,-3.18 0.57,-3.81 3.42,-3.8c3.45,0.01 3.56,0.1 6.81,5.75c1.52,2.64 3.48,5.41 4.34,6.16c1.3,1.13 1.45,1.58 0.87,2.67c-1.01,1.88 6.57,3.2 12.73,2.21c2.29,-0.36 6.15,-0.71 8.59,-0.77c2.43,-0.05 5.23,-0.51 6.21,-1.02c0.98,-0.51 2.79,-0.93 4.01,-0.93c1.23,0 2.66,-0.43 3.19,-0.96c0.53,-0.53 1.67,-0.96 2.53,-0.96c0.86,0 1.93,-0.43 2.37,-0.96c0.43,-0.52 1.32,-0.96 1.97,-0.96c1.94,0 12.75,-4.92 12.75,-5.81c0,-0.32 0.69,-0.59 1.54,-0.59c0.84,0 1.67,-0.38 1.85,-0.84c0.18,-0.46 1.47,-1.18 2.87,-1.6c1.41,-0.42 2.91,-1.2 3.35,-1.72c0.44,-0.53 1.44,-0.96 2.23,-0.96c0.79,0 2.43,-0.94 3.65,-2.08c1.22,-1.15 3.06,-2.48 4.09,-2.96c1.03,-0.48 2.6,-1.29 3.48,-1.79c0.88,-0.5 2.35,-1.21 3.27,-1.56c1.11,-0.42 2.08,-1.61 2.86,-3.49c1.05,-2.56 1.39,-2.85 3.28,-2.85c2.21,0 2.93,-1.03 0.99,-1.4c-0.61,-0.12 -1.12,-0.79 -1.12,-1.49c0,-1.26 -1.58,-1.6 -4.16,-0.89c-0.72,0.19 -0.96,-0.3 -0.97,-1.98c-0.02,-2.58 -1.43,-4.96 -5.19,-8.78c-1.46,-1.48 -3.45,-4.08 -4.42,-5.76c-0.97,-1.69 -2.26,-3.64 -2.86,-4.35c-1.23,-1.42 -2.48,-3.69 -4.42,-8c-6.19,-13.77 -7.54,-22.07 -7.67,-47.33c-0.04,-10.07 -0.25,-25.94 -0.45,-35.27c-0.2,-9.57 -0.09,-18.78 0.25,-21.13c2.69,-18.33 11.87,-43.25 20.7,-56.13c1,-1.48 1.83,-2.95 1.83,-3.27c0,-0.32 0.74,-1.42 1.66,-2.44c0.91,-1.02 2.18,-2.98 2.82,-4.35c0.63,-1.37 2,-3.24 3.04,-4.16c1.85,-1.63 7.03,-7.37 10.57,-11.69c4.18,-5.11 4.96,-6.23 4.96,-7.15c0,-0.54 0.79,-1.56 1.76,-2.28c1.76,-1.3 1.76,-1.31 0.64,-3.31c-0.62,-1.1 -0.97,-2.26 -0.78,-2.57c0.69,-1.11 -5.46,-8.88 -7.06,-8.93c-0.35,-0.01 -1.94,-1.24 -3.54,-2.73c-3.51,-3.29 -14.28,-10.43 -19.43,-12.88c-2.07,-0.99 -5.3,-2.78 -7.18,-3.97c-1.88,-1.21 -3.61,-2.19 -3.84,-2.19c-0.49,0 -10.53,-5.6 -15,-8.36c-2.05,-1.27 -4.63,-2.06 -8.97,-2.74c-5.75,-0.91 -9.8,-1.6 -23.37,-3.93c-6.08,-1.04 -7.45,-1.23 -16.65,-2.23c-11.94,-1.31 -14.89,-1.53 -20.71,-1.58c-3.29,-0.03 -6.32,0.17 -6.72,0.42m125.73,57.48c0,0.47 0.19,0.66 0.42,0.42c0.12,-0.11 0.18,-0.26 0.18,-0.42c0,-0.17 -0.06,-0.31 -0.18,-0.43c-0.23,-0.23 -0.42,-0.04 -0.42,0.43m27.53,25.95c-0.35,0.9 -1.66,2.7 -2.93,4c-1.28,1.31 -2.73,3.17 -3.23,4.14c-0.5,0.97 -1.19,1.76 -1.52,1.76c-0.34,0 -1.2,1.14 -1.9,2.53c-0.71,1.38 -2.26,3.26 -3.45,4.17c-2.72,2.08 -6.59,7.58 -9.69,13.79c-1.31,2.64 -2.68,5.35 -3.03,6.03c-0.35,0.67 -1.17,2.69 -1.81,4.48c-0.64,1.79 -1.89,4.98 -2.77,7.1c-8.89,21.35 -11.42,70.79 -4.34,84.65c0.76,1.48 1.38,3.06 1.39,3.52c0.09,4.66 13.55,27.15 17.51,29.28c1.76,0.93 3.61,0.14 3.61,-1.56c0,-0.45 0.44,-1.17 0.97,-1.62c0.54,-0.45 0.85,-0.93 0.71,-1.08c-0.27,-0.27 1.98,-6.8 4.58,-13.31c0.7,-1.76 1.63,-4.93 2.06,-7.04c0.43,-2.12 1.04,-4.17 1.36,-4.56c0.89,-1.1 6.27,-30.16 6.31,-34.06c0.01,-1.17 0.42,-3.47 0.9,-5.12c0.49,-1.65 1.23,-4.87 1.66,-7.14c0.42,-2.27 1.21,-4.99 1.75,-6.04c0.68,-1.31 0.87,-2.85 0.61,-5.01c-0.2,-1.7 -0.2,-3.52 0,-4.04c0.57,-1.5 1.5,-1.09 1.5,0.66c0,0.88 0.29,1.6 0.64,1.6c0.86,0 0.81,-3.6 -0.09,-6.09c-0.85,-2.36 -0.01,-5.75 1.42,-5.75c0.73,0 0.87,1.06 0.67,5.43c-0.22,5.28 -1.2,9.5 -1.81,7.85c-0.16,-0.44 -0.56,-0.8 -0.89,-0.8c-1.05,0 -0.61,1.69 0.77,2.94c1.73,1.56 1.42,8.61 -0.58,13.16c-1.26,2.87 -1.27,3 -0.13,3.29c1.97,0.52 1.36,9.88 -1.2,18.23c-1.25,4.09 -1.59,12.82 -0.44,11.4c0.55,-0.68 1,-1.7 1,-2.24c0,-0.55 0.6,-2.59 1.34,-4.52c0.73,-1.94 1.44,-5.11 1.58,-7.05c0.13,-1.93 0.7,-5.25 1.25,-7.36c0.57,-2.11 1.17,-6.29 1.35,-9.28c0.17,-3 0.73,-7.52 1.24,-10.04c0.5,-2.53 0.79,-4.98 0.64,-5.44c-0.26,-0.8 -0.96,-8.65 -1.26,-14.29c-0.35,-6.43 -0.27,-6.17 -1.62,-5.32c-0.68,0.42 -1.39,1.35 -1.57,2.05c-0.58,2.21 -0.97,0.81 -0.58,-2.08c0.3,-2.23 0.59,-2.7 1.5,-2.47c0.77,0.21 1.23,-0.14 1.43,-1.06c0.16,-0.76 0.51,-1.87 0.77,-2.49c0.36,-0.86 0.16,-1.12 -0.84,-1.12c-1.81,0 -1.97,-0.48 -1.38,-4.16c0.58,-3.64 -0.14,-5.08 -1.58,-3.17c-0.84,1.12 -0.92,0.71 -0.73,-4.05c0.11,-2.92 -0.04,-5.45 -0.35,-5.64c-0.3,-0.19 -0.55,-1.62 -0.55,-3.19c0,-1.56 -0.25,-2.84 -0.56,-2.84c-0.63,0 -1.48,-4.41 -1,-5.19c0.64,-1.03 2.24,0.21 1.86,1.43c-0.4,1.25 0.61,1.68 1.3,0.56c0.58,-0.94 1.6,-0.78 1.6,0.25c0,0.49 -0.43,1.06 -0.96,1.26c-1.22,0.47 -1.24,1.95 -0.03,2.94c0.66,0.56 0.76,1.19 0.35,2.27c-0.78,2.04 -0.54,4.16 0.46,4.16c0.49,0 0.82,0.8 0.82,1.99c0,1.09 0.59,2.8 1.3,3.8c0.81,1.14 1.17,2.39 0.96,3.3c-0.45,1.9 0.6,3.67 1.59,2.69c1.5,-1.5 0.79,-18.47 -0.82,-19.54c-0.34,-0.23 -0.41,-1.56 -0.16,-3.06c0.33,-1.96 0.18,-3.08 -0.57,-4.22c-0.56,-0.86 -1.02,-2.26 -1.02,-3.13c0,-2.15 -0.62,-3.59 -1.56,-3.59c-0.5,0 -0.68,-0.69 -0.49,-1.93c0.15,-1.06 -0.05,-2.32 -0.45,-2.8c-0.39,-0.48 -0.54,-1.35 -0.32,-1.92c0.22,-0.57 0.08,-1.04 -0.31,-1.04c-0.39,0 -0.71,-0.61 -0.71,-1.35c0,-1.31 -0.05,-1.32 -1.66,-0.27c-2.12,1.39 -2.48,0.96 -2.34,-2.73c0.13,-2.99 0.1,-3.03 -3.06,-4.77c-3.87,-2.14 -3.72,-2.14 -4.47,-0.14m12.3,20.85c-1.13,3.65 -1,4.54 0.63,4.3c1.17,-0.17 1.42,-0.67 1.57,-3.19c0.21,-3.87 -1.13,-4.55 -2.2,-1.11m-3.92,2.23c0.03,0.74 0.18,0.9 0.39,0.39c0.18,-0.47 0.16,-1.02 -0.06,-1.23c-0.21,-0.21 -0.36,0.17 -0.33,0.84m3.15,33.56c0,0.35 0.41,0.64 0.92,0.64c0.51,0 1.1,-0.29 1.32,-0.64c0.22,-0.35 -0.2,-0.64 -0.92,-0.64c-0.73,0 -1.32,0.29 -1.32,0.64m-4.35,73.01c-0.42,0.69 -0.78,1.75 -0.79,2.37c0,0.62 -1,3.58 -2.22,6.57c-2.45,5.99 -2.8,7.66 -1.36,6.47c0.48,-0.4 1.06,-1.61 1.27,-2.69c0.22,-1.08 0.78,-2.87 1.26,-3.99c2.5,-5.86 3.76,-11.79 1.84,-8.73m-297.9,11.74c0,0.21 4.67,9.12 7.68,14.65c0.72,1.32 1.71,2.4 2.19,2.4c0.48,0 1.05,0.67 1.25,1.49c0.21,0.83 1.68,2.84 3.28,4.48c1.73,1.79 2.89,3.57 2.89,4.46c0,2.73 21.39,22.82 22.8,21.41c0.27,-0.26 -5.69,-6.5 -9.69,-10.15c-3.02,-2.76 -8.63,-9.38 -8.63,-10.19c0,-0.32 -0.41,-0.41 -0.93,-0.22c-0.62,0.24 -1.24,-0.4 -1.9,-1.98c-0.54,-1.29 -2.57,-4.1 -4.51,-6.25c-1.95,-2.15 -3.54,-4.12 -3.54,-4.38c0,-0.92 -5.79,-9.84 -6.73,-10.36c-0.53,-0.29 -0.96,-1.09 -0.96,-1.78c0,-1.27 -1.8,-3.81 -2.7,-3.81c-0.27,0 -0.5,0.1 -0.5,0.23m41.3,50.34c0.45,0.72 2.89,2.14 2.89,1.68c0,-0.17 -0.45,-0.75 -1.01,-1.31c-1.11,-1.1 -2.5,-1.38 -1.88,-0.37m4.83,2.94c-0.01,0.37 0.62,1.28 1.42,2c1.92,1.75 4.32,2.96 4.32,2.17c0,-0.34 -0.65,-0.81 -1.44,-1.05c-0.79,-0.24 -2.08,-1.2 -2.86,-2.13c-0.78,-0.93 -1.43,-1.37 -1.44,-0.99m356.75,14.28c-0.55,0.35 -0.63,0.7 -0.22,0.96c0.8,0.49 2.69,-0.18 2.69,-0.95c0,-0.73 -1.33,-0.73 -2.47,-0.01m7.71,2.68c0.13,0.38 0.44,0.67 0.7,0.64c0.25,-0.02 0.91,-0.04 1.46,-0.04c0.55,0 0.82,-0.29 0.6,-0.64c-0.53,-0.87 -3.05,-0.82 -2.76,0.04m-252.22,18.92c-0.45,1.17 -0.35,1.25 2.25,1.74c1.76,0.34 2.09,0.23 1.92,-0.66c-0.29,-1.47 -3.68,-2.35 -4.17,-1.08m176.38,124.61c-0.5,1.27 -2.42,1.49 -3.51,0.4c-1.04,-1.04 -2.81,-0.2 -2.31,1.1c0.32,0.83 0.13,0.96 -0.89,0.64c-1.31,-0.41 -5.96,2.15 -10.1,5.56c-1.06,0.88 -3.79,2.59 -6.08,3.8c-6.09,3.23 -16.15,9.98 -17.93,12.03c-0.18,0.2 -2.77,2.01 -5.77,4.01c-2.99,2 -6.88,4.96 -8.64,6.59c-1.77,1.62 -4.89,4.01 -6.96,5.3c-1.82,1.14 -3.63,2.29 -5.44,3.45c-1.18,0.76 -2.39,1.48 -3.61,2.17c-1.06,0.59 -2.79,1.77 -3.85,2.61c-2.7,2.18 -10.85,8.59 -12.96,10.2c-1.53,1.17 -11.41,7.97 -25.27,17.39c-6.66,4.52 -10.75,7.98 -10.75,9.09c0,0.57 -6.62,5.14 -7.45,5.14c-0.34,0 -1.22,1.66 -1.94,3.68c-0.96,2.7 -1.66,3.74 -2.64,3.88c-7.97,1.19 -6.32,15.98 2.28,20.45c11.54,6.01 16.6,8.78 17.63,9.67c0.87,0.75 1.43,0.83 2.24,0.32c1.3,-0.82 5.23,1.81 5.28,3.54c0.01,0.57 1.66,2.19 3.66,3.6c2,1.41 4.8,3.6 6.21,4.86c2.73,2.44 6.79,5.36 15.71,11.32c3,2 7.38,5.08 9.75,6.85c2.38,1.77 6.94,4.93 10.15,7.02c3.21,2.1 6.07,4.41 6.35,5.15c0.55,1.44 7.15,7.38 8.2,7.38c0.35,0 0.8,0.43 1,0.96c0.21,0.53 0.94,0.96 1.63,0.96c0.69,0 1.42,0.51 1.62,1.14c0.2,0.63 1.16,1.61 2.13,2.19c0.96,0.57 3.85,3.08 6.41,5.58c2.57,2.49 5.82,5.27 7.24,6.17c1.42,0.89 2.74,2.04 2.93,2.55c0.2,0.52 1.02,0.93 1.81,0.93c0.8,0 1.82,0.44 2.26,0.96c0.89,1.08 1.92,1.28 1.92,0.37c0,-0.33 -0.56,-0.78 -1.25,-0.99c-0.69,-0.22 -1.43,-0.96 -1.65,-1.64c-0.21,-0.69 -1.1,-1.43 -1.97,-1.65c-1.17,-0.29 -1.4,-0.6 -0.9,-1.2c0.49,-0.6 0.36,-0.89 -0.52,-1.12c-1.47,-0.39 -4.77,-6.07 -3.86,-6.63c0.78,-0.48 4.78,3.23 6.01,5.57c0.48,0.92 1.73,2.03 2.78,2.46c2.16,0.9 5.47,5.45 4.95,6.82c-0.2,0.49 -0.08,0.9 0.25,0.9c0.33,0 2.1,1.45 3.93,3.22c5.23,5.07 5.84,3.66 5.62,-12.99c-0.07,-5.8 0.33,-14.06 1,-20.33c1.35,-12.73 1.24,-48.01 -0.16,-49.41c-0.93,-0.92 -1.06,-6.68 -0.17,-7.23c0.37,-0.23 0.12,-1.36 -0.6,-2.76c-2.62,-5.09 -3.01,-21.94 -0.49,-21.11c1.13,0.37 2.14,5.47 1.26,6.35c-0.41,0.42 -0.48,1.23 -0.16,2.05c1.97,5.13 2.52,8.82 1.62,10.89c-0.39,0.9 -0.3,1.14 0.36,0.92c1.38,-0.46 3.61,-12.25 2.55,-13.49c-0.23,-0.26 0.08,-3.43 0.68,-7.04c0.96,-5.65 0.98,-6.66 0.2,-7.27c-1.29,-1.01 -1.26,-8.77 0.04,-9.85c0.69,-0.57 0.77,-1.1 0.31,-1.96c-0.35,-0.66 -0.48,-3.25 -0.28,-5.86c0.75,-9.84 1.05,-15.14 1.25,-21.64c0.11,-3.7 0.25,-6.86 0.33,-7.04c0.14,-0.33 0.56,-6.2 0.73,-10.25c0.19,-4.65 -0.35,-12.8 -0.86,-12.8c-0.93,0 -3.07,4.1 -3.07,5.9c0,1.08 -0.49,2 -1.28,2.42c-1.05,0.57 -1.28,1.34 -1.29,4.35c0,3.72 -1.5,7.83 -3.04,8.31c-1.18,0.38 -1.04,-6.48 0.22,-10.42c1.79,-5.62 2.19,-7.1 2.19,-8.22c0,-0.61 0.68,-2.46 1.52,-4.12c0.84,-1.66 1.85,-4.6 2.26,-6.52c0.41,-1.92 1.05,-3.69 1.42,-3.92c0.38,-0.23 0.58,-0.96 0.44,-1.62c-0.22,-1.12 -0.27,-1.13 -0.68,-0.09m-285.87,7.31c0.12,0.12 0.26,0.18 0.43,0.18c0.17,0 0.31,-0.06 0.43,-0.18c0.23,-0.23 0.04,-0.42 -0.43,-0.42c-0.47,0 -0.66,0.19 -0.43,0.42m-4.93,0.67c-0.43,0.42 -2.61,0.79 -11.75,1.97c-2.19,0.29 -4.13,0.68 -4.32,0.86c-0.47,0.48 5.5,4.28 8.1,5.16c1.17,0.39 2.93,1.28 3.92,1.97c2.19,1.53 8.03,3.14 9.6,2.65c0.63,-0.2 1.58,0 2.11,0.43c0.74,0.62 1.13,0.62 1.72,0.03c0.56,-0.56 0.57,-0.9 0.06,-1.23c-0.39,-0.24 -0.91,-1.1 -1.15,-1.89c-0.41,-1.3 -0.86,-1.44 -4.58,-1.44c-2.82,0 -4.14,-0.25 -4.19,-0.8c-0.04,-0.44 -0.11,-1.23 -0.16,-1.76c-0.06,-0.63 -0.91,-1.03 -2.48,-1.16c-4.16,-0.34 -1.23,-2.68 3.35,-2.68c2.17,0 3.85,-0.89 3.85,-2.05c0,-0.63 -3.46,-0.68 -4.08,-0.06m65.55,7.9c-1.23,0.3 -4.11,0.52 -6.4,0.49c-4.72,-0.07 -9.57,0.62 -10.66,1.5c-0.45,0.36 -2.18,0.34 -4.48,-0.05c-2.47,-0.42 -4.94,-0.84 -7.41,-1.27c-2.31,-0.39 -4.43,-0.4 -5.76,-0.02c-1.15,0.33 -3.08,0.6 -4.28,0.6c-1.56,0 -2.99,0.66 -5.01,2.32c-2.38,1.95 -3.34,2.33 -6.14,2.4c-2.35,0.06 -3.57,0.41 -4.16,1.2c-0.46,0.62 -1.28,1.13 -1.82,1.13c-0.54,0 -0.87,0.3 -0.75,0.68c0.13,0.38 0.52,0.69 0.86,0.69c0.34,0 1.08,0.41 1.64,0.91c0.55,0.5 1.22,0.7 1.48,0.44c0.27,-0.26 0.76,0.03 1.11,0.64c0.34,0.61 0.94,1.12 1.33,1.12c0.39,0 2.17,1.13 3.97,2.51c1.79,1.39 5.28,3.42 7.74,4.53c2.46,1.1 4.91,2.39 5.44,2.84c0.53,0.46 4.42,2.21 8.65,3.87c4.23,1.68 8.03,3.32 8.46,3.66c0.42,0.34 1.02,0.47 1.34,0.27c0.31,-0.19 1.39,0.5 2.39,1.55c1,1.04 2.18,1.9 2.63,1.9c0.46,0 1.13,0.57 1.51,1.28c0.38,0.7 1.01,1.27 1.41,1.27c0.4,0 1.18,0.41 1.74,0.91c1.42,1.26 7.11,4.22 8.13,4.22c0.47,0 2.22,1.28 3.91,2.86c1.68,1.57 3.92,3.04 4.98,3.27c1.06,0.22 2.5,0.89 3.2,1.47c2.87,2.39 5.4,3.88 5.7,3.38c1.12,-1.81 1.55,-6.59 0.97,-10.78c-0.49,-3.48 -0.42,-5.9 0.26,-9.93c0.49,-2.92 0.76,-7.26 0.59,-9.65c-0.19,-2.77 -0.04,-4.64 0.44,-5.21c1.8,-2.17 1.42,-9.49 -0.62,-12.03c-1.04,-1.3 -1.9,-2.81 -1.9,-3.36c0,-1.28 -1.02,-1.3 -1.51,-0.04c-0.5,1.3 -1.44,1.21 -2.96,-0.31c-0.86,-0.86 -2.03,-1.23 -3.68,-1.17c-1.32,0.05 -4.14,-0.08 -6.25,-0.28c-2.12,-0.2 -4.85,-0.12 -6.09,0.19m123.34,0.98c-0.24,0.63 -0.1,0.92 0.37,0.77c0.96,-0.33 1.49,-1.78 0.64,-1.78c-0.34,0 -0.79,0.46 -1.01,1.01m-232.55,17.6c-1.2,1.95 5.95,5.9 7.84,4.34c1.32,-1.1 1.04,-1.51 -2.29,-3.32c-3.36,-1.83 -4.87,-2.1 -5.55,-1.02m325.66,3.79c-0.97,1.81 -0.29,2.49 1.1,1.1c0.79,-0.8 0.89,-1.27 0.36,-1.8c-0.52,-0.52 -0.91,-0.34 -1.46,0.7m-341.32,0.07c0,0.34 0.45,1.68 0.99,2.99c0.71,1.7 0.87,3.33 0.56,5.83c-0.46,3.7 0.52,4.29 1.23,0.74c0.22,-1.07 0.79,-1.94 1.28,-1.94c0.6,0 0.79,0.52 0.58,1.6c-0.17,0.89 -0.56,1.6 -0.88,1.6c-0.32,0 -0.4,0.69 -0.19,1.54c0.23,0.93 -0.08,2.37 -0.79,3.68c-0.65,1.18 -1.22,3.44 -1.27,5.03c-0.05,1.58 -0.28,5.04 -0.51,7.68c-0.55,6.36 -1.4,90.2 -1.15,113.33c0.04,3.34 0,7.23 -0.09,8.64c-0.09,1.41 0.06,3.55 0.32,4.77c0.27,1.21 0.29,2.51 0.06,2.88c-0.23,0.37 -0.48,3.59 -0.55,7.15l-0.12,6.46l2.16,1.04l2.16,1.02l2.3,-2.69c1.27,-1.49 6.11,-6.24 10.76,-10.57c4.65,-4.33 9.6,-8.97 11.01,-10.33c1.41,-1.35 3.28,-2.82 4.16,-3.26c0.88,-0.44 3.72,-2.42 6.32,-4.4c2.59,-1.98 5.32,-4 6.08,-4.51c0.75,-0.5 2.85,-2.33 4.65,-4.06c1.81,-1.74 3.85,-3.49 4.53,-3.89c11.77,-6.99 24.7,-18.6 29.86,-26.83c0.6,-0.96 1.47,-1.76 1.93,-1.76c0.46,0 1.97,-1.61 3.35,-3.58c5.36,-7.62 11.03,-11.94 13.78,-10.48c2.7,1.45 3.35,-1.36 1.76,-7.61c-0.35,-1.37 1.8,-2.48 3.14,-1.61c0.91,0.59 1.1,1.53 0.98,4.96c-0.16,4.95 0.45,5.31 3.54,2.12c2.27,-2.34 2.59,-3.18 0.98,-2.56c-0.72,0.28 -0.91,0.17 -0.59,-0.35c0.26,-0.43 0.87,-0.69 1.36,-0.59c0.99,0.19 5.51,-6.52 4.97,-7.4c-0.61,-0.99 -4.16,0.16 -5.75,1.87c-1.3,1.4 -1.69,1.53 -2.54,0.83c-0.89,-0.75 -0.82,-1 0.67,-2.28c3.71,-3.19 -0.16,-7.53 -12.74,-14.29c-4.62,-2.48 -9.93,-5.79 -19.22,-11.96c-1.76,-1.17 -3.43,-2.13 -3.71,-2.13c-0.27,0 -3.29,-1.82 -6.71,-4.04c-3.14,-2.04 -6.28,-4.07 -9.42,-6.08c-9.12,-5.81 -12.29,-7.88 -18.54,-12.13c-3.75,-2.55 -7.03,-4.65 -7.27,-4.66c-0.25,0 -1.17,-0.59 -2.05,-1.3c-3.29,-2.66 -9.2,-6.44 -12.54,-8.02c-1.91,-0.9 -3.47,-1.88 -3.47,-2.16c0,-0.29 -0.71,-0.71 -1.59,-0.93c-0.87,-0.22 -2.57,-1.25 -3.76,-2.31c-2.44,-2.14 -4.63,-2.48 -5.13,-0.79c-0.19,0.67 -0.28,0.47 -0.22,-0.49c0.06,-0.88 -0.32,-2.19 -0.84,-2.9c-0.97,-1.34 -3.83,-1.99 -3.83,-0.87m25.83,1.06c-0.03,0.62 -0.26,1.99 -0.51,3.05c-0.4,1.77 -0.22,2.06 2.01,3.32c1.35,0.76 3.03,1.91 3.73,2.55c1.48,1.34 6.52,4.68 7.07,4.68c0.2,0 1.43,0.84 2.73,1.85c1.3,1.02 3.17,2.03 4.14,2.26c0.98,0.23 2.28,0.91 2.9,1.52c1.67,1.65 4.45,3.34 5.5,3.34c0.51,0 1.06,0.36 1.21,0.8c0.47,1.31 1.26,0.05 0.82,-1.32c-0.33,-1.05 -11.45,-10.26 -16.38,-13.57c-0.78,-0.52 -2.47,-1.76 -3.75,-2.73c-10.16,-7.79 -9.38,-7.33 -9.47,-5.75m-57.85,4.32c0,0.18 0.15,0.32 0.32,0.32c0.18,0 0.32,-0.14 0.32,-0.32c0,-0.17 -0.14,-0.32 -0.32,-0.32c-0.17,0 -0.32,0.15 -0.32,0.32m372.69,2.88c0,0.47 0.19,0.67 0.43,0.43c0.11,-0.12 0.17,-0.26 0.17,-0.43c0,-0.16 -0.06,-0.31 -0.17,-0.42c-0.24,-0.24 -0.43,-0.05 -0.43,0.42m-281.75,18.25c0,0.18 0.14,0.32 0.32,0.32c0.17,0 0.32,-0.14 0.32,-0.32c0,-0.17 -0.15,-0.32 -0.32,-0.32c-0.18,0 -0.32,0.15 -0.32,0.32m282.91,19.05c-0.42,1.29 0.38,5.01 1.08,5.01c0.7,0 1.51,-3.72 1.09,-5.01c-0.14,-0.44 -0.63,-0.8 -1.09,-0.8c-0.45,0 -0.94,0.36 -1.08,0.8m-231.32,8.13c-1.18,0.43 -1.18,0.47 -0.05,0.9c0.65,0.25 1.45,0.19 1.77,-0.13c0.82,-0.83 -0.24,-1.31 -1.72,-0.77m-241.78,32.37c0,0.17 0.14,0.32 0.32,0.32c0.18,0 0.32,-0.15 0.32,-0.32c0,-0.18 -0.14,-0.33 -0.32,-0.33c-0.18,0 -0.32,0.15 -0.32,0.33m229.69,7.05c-2.42,2.83 -2.72,4.74 -0.56,3.56c2.16,-1.19 5.98,-5.14 5.58,-5.79c-0.84,-1.35 -2.64,-0.54 -5.02,2.23m-5.56,5.75c-0.44,0.53 -1.2,0.96 -1.68,0.96c-0.49,0 -0.89,0.43 -0.89,0.96c0,0.53 0.22,0.95 0.48,0.94c0.59,-0.02 4.01,-2.98 4.01,-3.47c0,-0.69 -1.14,-0.33 -1.92,0.61m208.87,37.5c0.13,0.38 0.51,0.69 0.84,0.69c0.34,0 0.71,-0.31 0.84,-0.69c0.12,-0.38 -0.25,-0.68 -0.84,-0.68c-0.59,0 -0.96,0.3 -0.84,0.68m3.72,1.34c0,1.15 3.92,4.38 5.32,4.38c0.68,0 2.22,0.86 3.43,1.92c2.16,1.9 3.42,2.41 3.42,1.39c0,-0.73 -10.65,-8.4 -11.69,-8.42c-0.26,-0.01 -0.48,0.32 -0.48,0.73m65.59,68.7c-0.49,1.93 0.1,3.79 1.01,3.23c0.82,-0.51 0.84,-3.97 0.02,-4.47c-0.34,-0.21 -0.8,0.34 -1.03,1.24m-42.08,-0.09c-0.61,1.59 0.36,4.36 1.87,5.35c0.83,0.55 1.52,1.25 1.52,1.55c0,3.5 5.37,8.08 6.38,5.44c0.69,-1.82 1.89,-2.72 2.06,-1.54c0.06,0.46 0.13,2.14 0.16,3.72c0.07,4.53 2.3,4.13 3.35,-0.6c0.95,-4.27 -0.1,-7.08 -2.64,-7.08c-0.86,0 -1.73,-0.3 -1.96,-0.66c-2.19,-3.55 -10.02,-8.06 -10.74,-6.18m-342.41,54.54c0,0.17 0.15,0.32 0.32,0.32c0.18,0 0.33,-0.15 0.33,-0.32c0,-0.18 -0.15,-0.32 -0.33,-0.32c-0.17,0 -0.32,0.14 -0.32,0.32m144.47,74.49c-1.2,1.95 -1.63,6.87 -0.92,10.71c1.18,6.43 2.85,4.42 3.02,-3.65c0.12,-5.69 -0.88,-9.04 -2.1,-7.06m31.63,36.59c0,0.47 0.2,0.66 0.43,0.43c0.12,-0.12 0.18,-0.26 0.18,-0.43c0,-0.16 -0.06,-0.3 -0.18,-0.42c-0.23,-0.24 -0.43,-0.04 -0.43,0.42m3.57,3.77c-0.19,0.32 0.06,0.91 0.55,1.32c0.5,0.41 1.1,1.88 1.33,3.27c0.47,2.78 1.39,3.81 2,2.23c0.74,-1.95 -2.92,-8.38 -3.88,-6.82m50.87,135.49c0,0.18 0.14,0.32 0.32,0.32c0.17,0 0.31,-0.14 0.31,-0.32c0,-0.17 -0.14,-0.32 -0.31,-0.32c-0.18,0 -0.32,0.15 -0.32,0.32m1.11,1.53c-1.34,1.37 -1.46,3.64 -0.21,4.12c0.49,0.2 1.27,1.38 1.73,2.63c0.45,1.26 1.05,2.28 1.33,2.28c0.29,0 0.52,0.41 0.52,0.9c0,0.83 1.29,1.67 2.59,1.67c1.02,0 2.11,-2.67 1.3,-3.18c-0.4,-0.24 -0.84,-1.37 -0.99,-2.52c-0.32,-2.52 -1.37,-3.91 -2.98,-3.91c-0.86,0 -1.21,-0.46 -1.21,-1.6c0,-1.86 -0.52,-1.96 -2.08,-0.39" fill="#ffffff" fill-rule="evenodd" id="svg_1"/>
  </g>
 </g>
</svg>