<?xml version="1.0" encoding="UTF-8"?>
<svg xmlns="http://www.w3.org/2000/svg" xmlns:xlink="http://www.w3.org/1999/xlink" width="300px" height="666px" viewBox="0 0 225 499" version="1.1">
<g id="surface1">
<path style=" stroke:none;fill-rule:evenodd;fill:rgb(100%,100%,100%);fill-opacity:1;" d="M 91.699219 0.296875 C 90.902344 0.730469 89.164062 1.105469 86.53125 1.417969 C 85.34375 1.558594 84.261719 1.765625 84.121094 1.875 C 83.585938 2.308594 81.136719 2.640625 80.269531 2.40625 C 79.417969 2.167969 75.203125 2.992188 74.515625 3.527344 C 74.359375 3.648438 73.804688 3.859375 73.273438 4 C 71.476562 4.46875 68.460938 5.644531 67.375 6.292969 C 66.777344 6.652344 65.941406 7.105469 65.519531 7.300781 C 65.101562 7.496094 64.683594 7.765625 64.601562 7.902344 C 64.417969 8.203125 62.582031 9.105469 62.15625 9.105469 C 61.988281 9.105469 61.464844 9.699219 61 10.433594 C 60.53125 11.164062 59.835938 11.949219 59.460938 12.175781 C 57.667969 13.261719 55.082031 16.941406 54.847656 18.730469 C 54.503906 21.390625 53.480469 22.863281 52.589844 21.976562 C 52.179688 21.558594 51.957031 21.519531 51.957031 21.847656 C 51.957031 22.226562 50.652344 24.140625 50.390625 24.140625 C 49.40625 24.140625 46.136719 29.800781 44.964844 33.523438 C 44.675781 34.449219 44.246094 35.640625 44.003906 36.171875 C 43.765625 36.699219 43.339844 37.945312 43.050781 38.933594 C 42.769531 39.929688 42.441406 41.066406 42.320312 41.460938 C 42.199219 41.859375 41.984375 42.941406 41.839844 43.867188 C 41.703125 44.792969 41.492188 45.875 41.375 46.273438 C 40.601562 48.96875 40.054688 50.636719 39.878906 50.832031 C 39.765625 50.957031 39.671875 51.355469 39.671875 51.714844 C 39.671875 52.070312 39.570312 52.402344 39.441406 52.445312 C 39.179688 52.535156 38.539062 56.632812 38.234375 60.148438 C 38.125 61.429688 37.960938 62.601562 37.871094 62.746094 C 37.09375 63.996094 38.210938 72.976562 39.777344 78.097656 C 40.53125 80.570312 41.046875 82.613281 41.605469 85.332031 C 41.859375 86.570312 42.160156 87.703125 42.277344 87.859375 C 42.398438 88.007812 42.554688 88.347656 42.628906 88.609375 C 43.429688 91.457031 43.832031 92.730469 43.992188 92.9375 C 44.097656 93.070312 44.425781 93.886719 44.71875 94.746094 C 45.175781 96.101562 45.941406 97.960938 47.636719 101.84375 C 48.894531 104.710938 50.269531 107.4375 50.609375 107.71875 C 50.820312 107.894531 50.992188 108.171875 50.992188 108.335938 C 50.992188 108.503906 51.167969 108.78125 51.375 108.957031 C 51.582031 109.128906 52.078125 109.875 52.472656 110.609375 C 52.863281 111.347656 53.550781 112.488281 54 113.148438 C 55.425781 115.253906 57.125 117.613281 57.496094 118.011719 C 57.695312 118.222656 58.039062 118.660156 58.257812 118.988281 C 58.472656 119.316406 59.613281 120.574219 60.789062 121.78125 C 61.964844 122.988281 63.257812 124.367188 63.667969 124.847656 C 64.886719 126.277344 69.542969 130.175781 71.226562 131.175781 C 72.085938 131.691406 73.03125 132.320312 73.324219 132.585938 C 73.617188 132.847656 74.070312 133.183594 74.328125 133.328125 C 75.398438 133.9375 77.082031 135.078125 77.679688 135.597656 C 78.035156 135.90625 79.109375 136.523438 80.074219 136.972656 C 81.039062 137.414062 81.996094 137.941406 82.195312 138.144531 C 82.402344 138.347656 83.019531 138.632812 83.582031 138.773438 C 84.136719 138.914062 84.808594 139.132812 85.074219 139.25 C 85.34375 139.371094 86.042969 139.59375 86.636719 139.746094 C 87.226562 139.898438 87.925781 140.171875 88.195312 140.355469 C 88.457031 140.542969 88.867188 140.695312 89.101562 140.695312 C 89.332031 140.695312 90.433594 141.070312 91.542969 141.527344 C 92.652344 141.984375 94.035156 142.433594 94.617188 142.523438 C 95.199219 142.609375 95.835938 142.816406 96.035156 142.980469 C 96.234375 143.144531 96.804688 143.355469 97.3125 143.445312 C 97.976562 143.558594 98.285156 143.765625 98.445312 144.195312 C 98.578125 144.539062 98.867188 144.78125 99.136719 144.78125 C 99.386719 144.78125 99.664062 144.957031 99.746094 145.175781 C 99.863281 145.476562 100.097656 145.53125 100.796875 145.425781 C 101.289062 145.34375 102.074219 145.378906 102.539062 145.5 C 103.003906 145.621094 103.867188 145.839844 104.464844 145.992188 C 105.058594 146.140625 105.769531 146.367188 106.03125 146.492188 C 106.296875 146.617188 106.949219 146.746094 107.472656 146.78125 C 110.238281 146.976562 111.878906 148.796875 111.546875 151.316406 C 111.296875 153.171875 107.84375 153.742188 106.511719 152.152344 C 106.113281 151.671875 105.941406 151.617188 105.488281 151.824219 C 105.0625 152.019531 104.847656 151.984375 104.492188 151.664062 C 104.140625 151.347656 103.660156 151.265625 102.386719 151.308594 C 101.476562 151.339844 98.886719 151.339844 96.636719 151.316406 C 94.386719 151.289062 92.292969 151.269531 91.992188 151.273438 C 91.691406 151.277344 91.128906 151.121094 90.738281 150.921875 C 89.738281 150.402344 87.625 150.4375 87.226562 150.976562 C 86.933594 151.378906 86.882812 151.378906 86.199219 150.976562 C 85.335938 150.472656 83.445312 150.417969 83.046875 150.894531 C 82.898438 151.078125 82.558594 151.171875 82.300781 151.105469 C 82.035156 151.039062 81.460938 151.152344 81.015625 151.363281 C 80.574219 151.578125 79.480469 151.789062 78.585938 151.832031 C 77.695312 151.882812 76.890625 152.035156 76.804688 152.175781 C 76.71875 152.316406 75.925781 152.539062 75.039062 152.675781 C 74.15625 152.8125 73.152344 153.113281 72.804688 153.335938 C 72.4375 153.578125 71.5 153.796875 70.558594 153.867188 C 68.703125 154 67.832031 154.671875 68.324219 155.589844 C 68.59375 156.09375 68.535156 156.132812 66.949219 156.453125 C 64.671875 156.910156 66.273438 157.761719 69.417969 157.773438 C 71.980469 157.78125 72.605469 157.917969 72.792969 158.503906 C 72.871094 158.738281 73.273438 159.054688 73.691406 159.199219 C 74.101562 159.34375 74.617188 159.605469 74.820312 159.78125 C 75.027344 159.953125 75.636719 160.222656 76.164062 160.371094 C 78.496094 161.035156 78.320312 160.996094 80.617188 161.28125 C 81.214844 161.351562 81.867188 161.476562 82.066406 161.5625 C 82.265625 161.644531 82.589844 161.742188 82.789062 161.78125 C 82.988281 161.820312 83.742188 161.980469 84.472656 162.125 C 85.871094 162.414062 88.449219 162.621094 90.238281 162.59375 C 90.824219 162.582031 91.371094 162.6875 91.460938 162.828125 C 91.570312 163.011719 91.824219 163.007812 92.300781 162.824219 C 92.679688 162.679688 93.160156 162.636719 93.367188 162.722656 C 93.574219 162.808594 94.667969 162.855469 95.792969 162.824219 C 101.792969 162.65625 103.914062 162.707031 104.316406 163.042969 C 104.667969 163.335938 104.761719 163.320312 105.035156 162.953125 C 105.296875 162.59375 105.433594 162.574219 105.886719 162.8125 C 106.183594 162.972656 106.578125 163.046875 106.757812 162.976562 C 106.964844 162.898438 107.113281 163.050781 107.160156 163.378906 C 107.207031 163.710938 107.433594 163.9375 107.765625 163.980469 C 108.4375 164.078125 108.761719 165.515625 109.011719 169.570312 C 109.144531 171.679688 109.292969 172.546875 109.539062 172.707031 C 109.820312 172.882812 109.726562 173.050781 109.101562 173.546875 C 108.671875 173.890625 108.316406 174.320312 108.316406 174.507812 C 108.316406 174.941406 107.800781 174.941406 105.066406 174.507812 C 98.324219 173.441406 78.761719 173.585938 77.511719 174.710938 C 77.277344 174.921875 76.828125 175.09375 76.507812 175.097656 C 75.710938 175.101562 75.328125 175.382812 75.199219 176.0625 C 75.136719 176.375 74.804688 176.859375 74.453125 177.136719 C 74 177.5 73.796875 177.917969 73.742188 178.570312 C 73.660156 179.601562 73.535156 179.71875 72.101562 180.136719 C 70.664062 180.566406 70.410156 180.730469 70.261719 181.339844 C 69.738281 183.578125 66.605469 183.003906 59.0625 179.289062 C 58.136719 178.828125 57.21875 178.457031 57.027344 178.457031 C 56.832031 178.460938 56.328125 178.128906 55.902344 177.714844 C 55.476562 177.300781 54.878906 176.839844 54.574219 176.6875 C 54.230469 176.515625 53.957031 176.097656 53.851562 175.582031 C 53.757812 175.121094 53.457031 174.566406 53.183594 174.339844 C 52.902344 174.117188 52.679688 173.761719 52.679688 173.550781 C 52.679688 173.273438 52.417969 173.160156 51.714844 173.128906 C 51.1875 173.105469 50.570312 173.082031 50.351562 173.070312 C 49.753906 173.039062 49.683594 173.585938 50.261719 173.769531 C 51.070312 174.023438 50.894531 174.855469 50.027344 174.855469 C 49.394531 174.855469 49.308594 174.773438 49.308594 174.160156 C 49.308594 172.636719 46.742188 172.378906 45.359375 173.761719 C 44.890625 174.226562 44.40625 174.613281 44.292969 174.613281 C 44.167969 174.613281 42.492188 176.335938 40.558594 178.433594 C 38.628906 180.539062 36.601562 182.566406 36.046875 182.945312 C 35.5 183.328125 34.003906 184.554688 32.722656 185.683594 C 31.445312 186.808594 29.695312 188.296875 28.835938 188.984375 C 26.820312 190.597656 26.867188 190.550781 24.714844 192.792969 C 23.109375 194.464844 21.234375 196.140625 18.871094 198.003906 C 18.488281 198.304688 17.242188 199.484375 16.097656 200.625 C 14.957031 201.769531 13.78125 202.777344 13.492188 202.867188 C 13.199219 202.953125 12.894531 203.238281 12.808594 203.496094 C 12.726562 203.753906 12.320312 204.144531 11.894531 204.359375 C 10.578125 205.039062 5.320312 210.132812 4.796875 211.246094 C 4.53125 211.808594 4.085938 212.46875 3.808594 212.722656 C 3.53125 212.972656 3.304688 213.324219 3.304688 213.5 C 3.304688 213.679688 3.140625 213.824219 2.941406 213.824219 C 2.730469 213.824219 2.578125 214.050781 2.570312 214.363281 C 2.566406 214.667969 2.300781 215.394531 1.988281 215.988281 C 0.0507812 219.664062 0.105469 219.46875 0.078125 222.925781 C 0.046875 226.515625 0.175781 226.816406 1.769531 226.816406 C 2.242188 226.816406 2.738281 227.003906 2.996094 227.28125 C 3.695312 228.035156 5.089844 227.046875 8.226562 223.582031 C 8.574219 223.191406 9.09375 222.464844 9.378906 221.957031 C 9.664062 221.457031 10.066406 221.042969 10.273438 221.042969 C 10.484375 221.042969 10.785156 220.824219 10.953125 220.5625 C 11.117188 220.296875 11.417969 220.078125 11.621094 220.078125 C 12.042969 220.078125 12.707031 219.484375 18.203125 214.140625 C 20.410156 212.003906 22.425781 210.046875 22.691406 209.800781 C 22.957031 209.554688 23.792969 208.707031 24.542969 207.917969 C 25.292969 207.132812 26.847656 205.835938 27.992188 205.042969 C 30.496094 203.308594 30.503906 203.300781 33.53125 200.800781 C 34.855469 199.699219 36.136719 198.554688 36.378906 198.253906 C 36.621094 197.953125 36.972656 197.707031 37.160156 197.707031 C 37.347656 197.707031 37.503906 197.617188 37.503906 197.503906 C 37.503906 197.164062 38.546875 196.148438 39.25 195.792969 C 39.613281 195.609375 39.914062 195.371094 39.914062 195.261719 C 39.914062 195.152344 40.003906 195.0625 40.121094 195.0625 C 40.234375 195.0625 40.28125 195.316406 40.21875 195.632812 C 40.160156 195.949219 40.277344 196.523438 40.480469 196.917969 C 40.683594 197.3125 40.796875 197.851562 40.722656 198.121094 C 40.632812 198.46875 40.734375 198.640625 41.097656 198.734375 C 41.652344 198.878906 41.679688 199.085938 41.601562 202.882812 C 41.578125 204.070312 41.472656 205.152344 41.367188 205.285156 C 40.878906 205.910156 40.730469 210.21875 41.191406 210.503906 C 41.410156 210.640625 41.414062 210.792969 41.203125 211.125 C 40.9375 211.558594 40.949219 213.246094 41.25 216.957031 C 41.660156 222.066406 41.808594 260.503906 41.429688 263.714844 C 41.242188 265.234375 41.246094 266.289062 41.4375 267.382812 C 41.734375 269.125 41.394531 271.398438 40.644531 272.640625 C 40.410156 273.039062 40.136719 273.792969 40.042969 274.320312 C 39.949219 274.84375 39.664062 275.417969 39.414062 275.59375 C 38.914062 275.945312 38.796875 276.847656 39.195312 277.242188 C 39.367188 277.414062 39.292969 277.6875 38.960938 278.105469 C 38.253906 279.011719 37.914062 280.003906 38.21875 280.308594 C 38.355469 280.445312 38.46875 280.910156 38.46875 281.34375 C 38.46875 282.410156 39.101562 282.746094 40.398438 282.355469 C 41.808594 281.9375 41.929688 283.550781 40.691406 286.148438 C 40.320312 286.929688 40.320312 287.0625 40.707031 288.144531 C 41.078125 289.191406 41.082031 289.386719 40.753906 290.167969 C 40.558594 290.644531 40.398438 291.214844 40.398438 291.433594 C 40.398438 291.65625 40.203125 291.972656 39.976562 292.144531 C 39.492188 292.496094 39.398438 293.628906 39.371094 299.222656 C 39.34375 303.878906 40.191406 305.980469 40.5625 302.207031 C 40.640625 301.425781 40.855469 300.492188 41.039062 300.121094 C 41.222656 299.753906 41.324219 299.363281 41.253906 299.253906 C 41.1875 299.144531 41.28125 298.851562 41.464844 298.605469 C 41.773438 298.179688 41.8125 298.199219 42.011719 298.972656 C 42.21875 299.785156 42.804688 300.292969 42.804688 299.660156 C 42.804688 299.101562 44.203125 298.410156 44.621094 298.753906 C 44.8125 298.910156 44.96875 299.195312 44.96875 299.375 C 44.96875 299.558594 45.121094 299.707031 45.304688 299.707031 C 45.664062 299.707031 46.039062 298.628906 45.8125 298.257812 C 45.738281 298.136719 45.945312 297.53125 46.273438 296.917969 C 46.878906 295.78125 46.933594 293.769531 46.386719 293.070312 C 46.257812 292.902344 46.363281 292.636719 46.660156 292.371094 C 47.035156 292.027344 47.078125 291.863281 46.859375 291.597656 C 46.636719 291.332031 46.691406 291.148438 47.097656 290.738281 C 47.523438 290.316406 47.617188 290.292969 47.617188 290.601562 C 47.617188 292.4375 48.65625 291.53125 49.070312 289.335938 C 49.246094 288.410156 49.480469 287.601562 49.589844 287.535156 C 49.699219 287.464844 49.789062 287.152344 49.789062 286.835938 C 49.789062 286.519531 49.898438 286.195312 50.027344 286.113281 C 50.164062 286.03125 50.269531 285.769531 50.269531 285.527344 C 50.269531 285.289062 50.433594 284.957031 50.632812 284.792969 C 50.832031 284.628906 50.992188 284.3125 50.992188 284.097656 C 50.992188 283.878906 51.234375 283.597656 51.523438 283.464844 C 52.332031 283.101562 54.1875 280.25 54.054688 279.570312 C 54 279.261719 54.039062 278.949219 54.148438 278.882812 C 54.261719 278.816406 54.535156 278.367188 54.765625 277.890625 C 54.992188 277.417969 55.363281 276.976562 55.597656 276.917969 C 55.832031 276.855469 55.960938 276.660156 55.890625 276.472656 C 55.816406 276.269531 56.097656 275.945312 56.621094 275.636719 C 57.121094 275.34375 58.003906 274.359375 58.734375 273.289062 C 60.046875 271.351562 60.683594 270.695312 62.96875 268.914062 C 64.585938 267.65625 69.539062 262.765625 70.707031 261.277344 C 71.148438 260.714844 71.617188 260.253906 71.75 260.253906 C 71.878906 260.253906 72.511719 259.738281 73.15625 259.109375 C 73.800781 258.484375 74.738281 257.625 75.246094 257.203125 C 75.753906 256.777344 76.605469 255.996094 77.128906 255.460938 C 77.660156 254.925781 78.179688 254.484375 78.289062 254.484375 C 78.527344 254.476562 80.5 252.941406 81.292969 252.148438 C 81.65625 251.78125 82.125 251.59375 82.675781 251.59375 C 83.394531 251.59375 83.511719 251.515625 83.511719 251.015625 C 83.511719 250.609375 83.679688 250.402344 84.101562 250.296875 C 84.429688 250.214844 84.980469 249.769531 85.335938 249.304688 C 85.6875 248.84375 86.074219 248.46875 86.199219 248.46875 C 86.324219 248.46875 86.8125 248.085938 87.292969 247.625 C 87.769531 247.164062 88.351562 246.785156 88.589844 246.785156 C 88.824219 246.785156 89.25 246.453125 89.539062 246.050781 C 89.824219 245.648438 90.414062 245.136719 90.84375 244.910156 C 91.277344 244.683594 92.082031 244.183594 92.632812 243.804688 C 93.183594 243.421875 93.882812 243.078125 94.199219 243.042969 C 95.28125 242.925781 96.152344 242.261719 96.757812 241.089844 C 97.195312 240.242188 97.523438 239.90625 97.960938 239.84375 C 98.292969 239.800781 98.695312 239.652344 98.855469 239.523438 C 99.035156 239.375 99.289062 239.371094 99.546875 239.511719 C 99.820312 239.667969 100.328125 239.589844 101.160156 239.277344 C 102.230469 238.871094 102.507812 238.851562 103.554688 239.121094 C 104.324219 239.316406 104.863281 239.34375 105.101562 239.195312 C 105.691406 238.820312 105.597656 238.488281 104.886719 238.410156 C 104.035156 238.3125 104 237.582031 104.828125 237.203125 C 105.265625 237.003906 105.429688 236.746094 105.429688 236.234375 C 105.429688 235.101562 105.957031 234.882812 106.734375 235.691406 C 107.328125 236.316406 107.367188 236.46875 107.15625 237.242188 C 106.964844 237.9375 107.003906 238.273438 107.355469 238.960938 C 107.847656 239.925781 107.972656 243.035156 107.558594 244.105469 C 107.425781 244.453125 107.316406 246.09375 107.3125 247.746094 C 107.3125 249.398438 107.207031 251.511719 107.082031 252.433594 C 106.960938 253.363281 106.800781 256.125 106.738281 258.570312 C 106.675781 261.019531 106.519531 263.617188 106.398438 264.34375 C 106.277344 265.070312 106.21875 266.152344 106.261719 266.75 C 106.351562 267.847656 106.125 270.214844 105.625 273.488281 C 105.476562 274.476562 105.3125 275.613281 105.261719 276.011719 C 105.167969 276.773438 104.988281 284.738281 104.851562 294.171875 C 104.773438 299.390625 104.453125 305.816406 104.003906 311.132812 C 103.902344 312.351562 103.917969 313.578125 104.039062 313.945312 C 104.179688 314.347656 104.167969 314.757812 104.023438 315.039062 C 103.886719 315.28125 103.78125 316.34375 103.789062 317.398438 L 103.808594 322.199219 C 103.828125 326.652344 103.703125 328.90625 103.433594 329.246094 C 103.261719 329.460938 103.269531 329.644531 103.464844 329.835938 C 103.804688 330.175781 103.835938 331.617188 103.503906 331.820312 C 103.367188 331.90625 103.261719 332.175781 103.261719 332.425781 C 103.261719 332.675781 103.085938 332.976562 102.867188 333.097656 C 102.214844 333.464844 102.320312 335.660156 103.0625 337.113281 C 103.410156 337.796875 103.742188 338.949219 103.820312 339.777344 C 103.941406 340.953125 104.359375 342.023438 106.042969 345.410156 C 108.0625 349.472656 108.460938 350.039062 110.558594 351.832031 C 111.0625 352.261719 112.082031 353.402344 112.824219 354.363281 C 113.566406 355.332031 114.640625 356.589844 115.214844 357.164062 C 115.796875 357.738281 116.269531 358.308594 116.269531 358.429688 C 116.269531 358.550781 116.59375 359.097656 116.992188 359.644531 C 117.386719 360.191406 117.714844 360.78125 117.714844 360.953125 C 117.714844 361.125 117.929688 361.417969 118.203125 361.605469 C 118.683594 361.941406 120.605469 364.914062 120.605469 365.324219 C 120.605469 365.636719 122.140625 367.304688 122.429688 367.304688 C 122.570312 367.304688 122.863281 367.683594 123.082031 368.144531 C 123.304688 368.609375 123.59375 368.988281 123.726562 368.988281 C 124.023438 368.988281 125.417969 371.378906 125.421875 371.898438 C 125.421875 372.109375 125.621094 372.464844 125.863281 372.6875 C 126.109375 372.90625 126.457031 373.542969 126.628906 374.105469 C 126.804688 374.664062 127.136719 375.339844 127.363281 375.605469 C 127.585938 375.867188 127.945312 376.425781 128.15625 376.835938 C 128.363281 377.253906 128.699219 377.65625 128.902344 377.730469 C 129.109375 377.808594 129.277344 378.152344 129.277344 378.492188 C 129.277344 378.824219 129.722656 379.832031 130.273438 380.722656 C 131.601562 382.875 132.234375 384.164062 133.835938 387.992188 C 134.253906 388.984375 134.695312 389.988281 134.824219 390.21875 C 134.953125 390.445312 135.054688 390.804688 135.054688 391.019531 C 135.054688 391.234375 135.230469 391.773438 135.441406 392.226562 C 136.128906 393.671875 135.074219 395.226562 131.988281 397.304688 C 131.445312 397.675781 129.640625 399.296875 127.984375 400.910156 C 126.328125 402.519531 124.664062 404.003906 124.292969 404.199219 C 123.574219 404.578125 119.664062 408.085938 118.730469 409.195312 C 118.425781 409.5625 116.472656 411.449219 114.390625 413.386719 C 110.949219 416.59375 109.71875 417.710938 107.21875 419.867188 C 106.757812 420.261719 105.035156 421.890625 103.382812 423.476562 C 101.734375 425.066406 99.957031 426.632812 99.433594 426.964844 C 98.90625 427.296875 97.519531 428.472656 96.351562 429.582031 L 93.179688 432.585938 C 92.058594 433.648438 90.789062 434.667969 89.050781 435.90625 C 88.453125 436.328125 87.277344 437.355469 86.433594 438.183594 C 85.589844 439.015625 84.457031 439.925781 83.90625 440.203125 C 83.355469 440.480469 82.472656 441.234375 81.945312 441.878906 C 81.417969 442.523438 80.898438 443.054688 80.800781 443.066406 C 80.503906 443.097656 78.1875 444.574219 77.617188 445.101562 C 76.558594 446.078125 75.730469 446.714844 75.0625 447.058594 C 74.695312 447.25 73.8125 447.960938 73.109375 448.636719 C 72.402344 449.3125 71.503906 450.03125 71.105469 450.230469 C 70.113281 450.734375 68.574219 452 66.277344 454.195312 C 62.054688 458.226562 55.683594 459.914062 56.929688 456.671875 C 57.011719 456.457031 56.945312 456.027344 56.777344 455.71875 C 56.558594 455.308594 56.542969 454.949219 56.730469 454.351562 C 56.863281 453.910156 56.976562 452.191406 56.972656 450.539062 C 56.972656 448.886719 57.140625 446.5625 57.347656 445.367188 C 57.550781 444.175781 57.894531 441.632812 58.113281 439.714844 C 58.332031 437.792969 58.546875 436.164062 58.59375 436.082031 C 58.644531 436 58.90625 434.488281 59.179688 432.714844 C 59.453125 430.941406 59.789062 429.164062 59.929688 428.769531 C 60.082031 428.347656 60.230469 425.09375 60.292969 420.949219 C 60.40625 413.023438 60.558594 408.136719 60.742188 406.515625 C 60.9375 404.777344 60.109375 399.347656 59.46875 398.175781 C 59.3125 397.886719 59.183594 397.308594 59.183594 396.898438 C 59.183594 396.273438 59.046875 396.09375 58.371094 395.808594 C 57.914062 395.617188 57.5 395.238281 57.421875 394.953125 C 56.933594 393.078125 56.152344 395.691406 55.332031 401.945312 C 55.203125 402.9375 54.867188 404.722656 54.589844 405.914062 C 54.3125 407.105469 54.003906 409.1875 53.902344 410.539062 C 53.742188 412.765625 53.664062 413.054688 53.101562 413.582031 C 52.738281 413.914062 52.410156 414.535156 52.335938 415.027344 C 52.261719 415.507812 52.140625 416.273438 52.070312 416.730469 C 51.894531 417.828125 51.183594 419.414062 50.328125 420.597656 C 49.941406 421.125 49.457031 422.039062 49.246094 422.632812 C 48.816406 423.835938 47.855469 426.882812 47.734375 427.449219 C 47.695312 427.644531 47.433594 428.726562 47.164062 429.851562 C 46.894531 430.976562 46.550781 432.652344 46.40625 433.578125 C 46.257812 434.507812 45.980469 436.238281 45.792969 437.429688 C 45.476562 439.457031 44.9375 444.292969 44.914062 445.367188 C 44.90625 445.632812 44.710938 447.277344 44.476562 449.019531 C 44.238281 450.765625 44.101562 452.40625 44.167969 452.667969 C 44.242188 452.9375 44.121094 453.921875 43.902344 454.875 C 43.636719 456.039062 43.527344 457.496094 43.566406 459.402344 C 43.59375 461.019531 43.507812 462.414062 43.363281 462.691406 C 43.222656 462.953125 42.976562 463.925781 42.820312 464.855469 C 42.652344 465.847656 42.464844 466.847656 42.277344 467.847656 C 42.136719 468.5625 41.984375 470.398438 41.929688 471.933594 C 41.765625 476.652344 41.667969 477.550781 41.125 479.164062 C 40.539062 480.929688 39.914062 483.605469 39.914062 484.363281 C 39.914062 484.652344 39.679688 484.96875 39.359375 485.117188 C 38.378906 485.566406 38.054688 487.074219 37.871094 492.085938 C 37.71875 496.070312 37.953125 496.96875 39.457031 498.253906 C 40.332031 499.003906 42.117188 499.292969 41.703125 498.621094 C 41.628906 498.5 41.464844 498.464844 41.34375 498.542969 C 41.214844 498.621094 41.113281 498.585938 41.113281 498.472656 C 41.113281 498.359375 41.796875 498.128906 42.625 497.960938 C 43.453125 497.789062 44.347656 497.558594 44.609375 497.445312 C 46.078125 496.8125 51.242188 496.511719 55.957031 496.789062 C 58.234375 496.921875 59.15625 496.878906 60.171875 496.59375 C 60.886719 496.394531 62.011719 496.191406 62.667969 496.140625 C 63.328125 496.09375 63.902344 495.933594 63.953125 495.789062 C 64 495.644531 64.351562 495.523438 64.726562 495.523438 C 65.105469 495.523438 65.71875 495.402344 66.089844 495.25 C 66.464844 495.097656 67.257812 494.957031 67.855469 494.929688 C 68.449219 494.898438 69.28125 494.863281 69.703125 494.839844 C 70.125 494.820312 70.632812 494.640625 70.832031 494.441406 C 71.03125 494.242188 71.417969 494.082031 71.691406 494.082031 C 71.96875 494.082031 72.382812 493.988281 72.613281 493.875 C 73.621094 493.371094 74.683594 493.144531 75.066406 493.355469 C 75.464844 493.566406 76.910156 493.355469 77.476562 493.007812 C 77.636719 492.910156 77.894531 493.015625 78.066406 493.246094 C 78.316406 493.585938 78.464844 493.613281 78.890625 493.382812 C 79.179688 493.230469 80.148438 493.113281 81.042969 493.136719 C 81.933594 493.160156 82.773438 493.136719 82.910156 493.097656 C 83.039062 493.054688 83.742188 493.199219 84.472656 493.410156 C 86.59375 494.023438 88.984375 494.386719 89.832031 494.230469 C 90.402344 494.125 90.933594 494.242188 91.777344 494.671875 C 92.867188 495.226562 97.210938 495.789062 98.777344 495.582031 C 99.027344 495.546875 99.375 495.640625 99.554688 495.789062 C 99.734375 495.9375 100.507812 496.058594 101.273438 496.058594 C 102.03125 496.0625 104.664062 496.054688 107.113281 496.046875 C 109.566406 496.039062 112.222656 496.070312 113.015625 496.109375 C 113.863281 496.15625 114.660156 496.066406 114.941406 495.894531 C 115.207031 495.734375 115.714844 495.527344 116.070312 495.441406 C 116.425781 495.355469 117.015625 495.039062 117.394531 494.742188 C 117.769531 494.445312 118.589844 493.941406 119.21875 493.628906 C 119.847656 493.3125 120.363281 492.945312 120.363281 492.820312 C 120.363281 492.691406 120.539062 492.652344 120.753906 492.734375 C 120.96875 492.820312 121.296875 492.761719 121.480469 492.613281 C 121.738281 492.398438 121.804688 492.433594 121.804688 492.765625 C 121.804688 493.164062 121.839844 493.164062 122.234375 492.808594 C 122.472656 492.59375 123.144531 492.386719 123.738281 492.347656 C 125.121094 492.25 125.351562 491.523438 124.246094 490.738281 C 122.261719 489.320312 120.84375 487.667969 120.84375 486.761719 C 120.84375 486.277344 120.644531 485.46875 120.398438 484.957031 C 120.011719 484.164062 119.996094 483.960938 120.277344 483.425781 C 120.457031 483.085938 120.589844 482.558594 120.578125 482.25 C 120.574219 481.945312 120.636719 481.449219 120.730469 481.15625 C 120.992188 480.3125 120.3125 480.246094 119.226562 481.015625 C 117.359375 482.335938 115.660156 483.671875 115.316406 484.082031 C 113.582031 486.171875 110.308594 486.15625 110.835938 484.058594 C 111.023438 483.320312 110.667969 483.191406 109.222656 483.464844 C 108.59375 483.578125 107.621094 483.589844 107.058594 483.484375 C 106.472656 483.371094 104.972656 483.410156 103.574219 483.5625 C 101.117188 483.832031 98.839844 483.6875 95.3125 483.027344 C 94.585938 482.890625 92.941406 482.675781 91.660156 482.542969 C 90.382812 482.410156 88.867188 482.148438 88.292969 481.960938 C 87.183594 481.59375 82.035156 481.148438 76.859375 480.96875 C 74.730469 480.898438 73.292969 480.71875 72.304688 480.40625 C 71.511719 480.152344 69.726562 479.660156 68.332031 479.304688 C 62.804688 477.890625 62.207031 477.472656 63.640625 476.0625 C 63.992188 475.722656 64.871094 474.519531 65.59375 473.394531 C 67.1875 470.921875 68.804688 469.328125 70.730469 468.347656 C 71.257812 468.078125 72.070312 467.507812 72.53125 467.078125 C 72.992188 466.648438 73.707031 466.027344 74.113281 465.695312 C 75.339844 464.699219 77.230469 462.714844 77.378906 462.269531 C 77.460938 462.039062 77.664062 461.84375 77.847656 461.84375 C 78.023438 461.84375 78.753906 461.277344 79.46875 460.585938 C 80.179688 459.886719 81.4375 458.734375 82.257812 458.015625 C 83.078125 457.296875 83.75 456.597656 83.75 456.453125 C 83.75 456.3125 84.285156 455.828125 84.941406 455.386719 C 85.59375 454.9375 86.390625 454.292969 86.710938 453.941406 C 87.035156 453.59375 87.609375 453.03125 87.992188 452.695312 C 88.378906 452.363281 89.074219 451.660156 89.542969 451.132812 C 90.011719 450.605469 90.664062 449.953125 90.988281 449.675781 C 91.3125 449.402344 92.390625 448.175781 93.378906 446.957031 C 94.375 445.738281 96.109375 443.972656 97.238281 443.042969 C 98.363281 442.105469 99.457031 441.078125 99.671875 440.757812 C 99.890625 440.429688 100.292969 440.007812 100.578125 439.808594 C 100.863281 439.609375 101.261719 439.128906 101.460938 438.738281 C 101.664062 438.351562 101.953125 438.03125 102.101562 438.03125 C 102.25 438.03125 102.980469 437.484375 103.714844 436.8125 C 104.460938 436.136719 105.230469 435.441406 105.429688 435.269531 C 105.628906 435.09375 106.074219 434.820312 106.425781 434.65625 C 106.777344 434.5 107.171875 434.136719 107.296875 433.851562 C 107.429688 433.570312 108.324219 432.855469 109.292969 432.253906 C 110.261719 431.664062 111.414062 430.796875 111.855469 430.332031 C 113.382812 428.726562 113.773438 428.285156 114.355469 427.488281 C 114.855469 426.800781 117.449219 424.796875 117.835938 424.796875 C 118.085938 424.796875 121.640625 421.28125 122.933594 419.75 C 126.125 415.972656 133.085938 409.175781 134.386719 408.558594 C 135.097656 408.226562 136.199219 407.519531 136.835938 406.992188 C 137.476562 406.464844 138.125 406.03125 138.273438 406.027344 C 138.734375 406.015625 143.292969 401.414062 144.570312 399.675781 C 146.050781 397.644531 148.6875 394.949219 149.558594 394.554688 C 150.246094 394.253906 150.34375 394.011719 150.664062 391.839844 C 151.316406 387.441406 151.296875 387.414062 137 368.75 C 128.070312 357.097656 128.886719 358.214844 124.371094 351.425781 C 122.746094 348.980469 121.0625 346.363281 120.644531 345.617188 C 120.222656 344.875 119.605469 344.085938 119.273438 343.871094 C 118.945312 343.652344 118.675781 343.371094 118.675781 343.242188 C 118.675781 342.992188 118.375 342.601562 117.085938 341.203125 C 116.632812 340.710938 116.199219 340.058594 116.121094 339.746094 C 116.042969 339.433594 115.828125 339.054688 115.640625 338.898438 C 114.835938 338.230469 114.234375 334.589844 114.929688 334.589844 C 115.488281 334.589844 115.625 334.121094 115.351562 333.179688 C 114.230469 329.3125 114.046875 328.265625 114.011719 325.53125 C 113.984375 323.125 114.257812 314.84375 114.464844 311.976562 C 114.542969 310.886719 114.796875 307.855469 114.941406 306.320312 C 115 305.660156 115.113281 303.710938 115.1875 301.992188 C 115.265625 300.273438 115.417969 298.050781 115.539062 297.058594 C 115.652344 296.066406 115.753906 295.09375 115.761719 294.894531 C 115.804688 293.367188 116.304688 288.210938 116.496094 287.378906 C 116.621094 286.816406 116.789062 284.679688 116.867188 282.625 C 117.164062 274.851562 117.523438 269.917969 117.976562 267.230469 C 118.121094 266.371094 118.277344 263.554688 118.316406 260.972656 C 118.398438 255.847656 118.578125 252.453125 118.917969 249.667969 C 119.054688 248.507812 119.175781 247.347656 119.277344 246.183594 C 119.359375 245.253906 119.523438 243.578125 119.652344 242.453125 C 119.773438 241.328125 119.878906 240.273438 119.878906 240.109375 C 119.878906 240.023438 119.910156 239.953125 119.96875 239.894531 C 120.027344 239.835938 120.097656 239.808594 120.179688 239.804688 C 120.347656 239.804688 120.726562 239.421875 121.027344 238.960938 C 121.671875 237.96875 122.5625 237.847656 123.402344 238.628906 C 123.699219 238.90625 124.679688 239.40625 125.582031 239.738281 C 128.5 240.8125 129.363281 241.164062 131.246094 242.058594 C 132.265625 242.539062 133.199219 242.933594 133.320312 242.933594 C 133.765625 242.933594 137.703125 244.890625 137.703125 245.109375 C 137.703125 245.234375 137.839844 245.339844 138.007812 245.339844 C 138.171875 245.339844 138.609375 245.71875 138.980469 246.183594 C 139.347656 246.644531 139.867188 247.023438 140.125 247.023438 C 140.382812 247.023438 141.621094 247.726562 142.875 248.585938 C 144.125 249.445312 145.265625 250.148438 145.402344 250.148438 C 145.46875 250.148438 145.527344 250.175781 145.578125 250.226562 C 145.625 250.273438 145.652344 250.332031 145.652344 250.398438 C 145.652344 250.53125 145.84375 250.71875 146.074219 250.804688 C 146.679688 251.03125 150.019531 253.035156 150.59375 253.515625 C 150.855469 253.738281 151.617188 254.226562 152.277344 254.601562 C 152.9375 254.976562 154.433594 255.96875 155.597656 256.808594 C 156.765625 257.644531 157.804688 258.328125 157.898438 258.328125 C 158 258.328125 158.457031 258.71875 158.914062 259.195312 C 159.371094 259.671875 160.394531 260.5625 161.1875 261.167969 C 162.777344 262.390625 166.449219 265.691406 168.378906 267.636719 C 169.058594 268.324219 169.726562 268.984375 169.859375 269.105469 C 174.234375 273.105469 177.292969 276.535156 179.757812 280.195312 C 180.164062 280.804688 180.679688 281.453125 180.902344 281.632812 C 181.121094 281.816406 181.300781 282.054688 181.300781 282.171875 C 181.300781 282.285156 181.773438 283.003906 182.351562 283.765625 C 182.933594 284.527344 183.609375 285.792969 183.859375 286.582031 C 184.335938 288.082031 185.933594 290.085938 186.65625 290.085938 C 187.121094 290.085938 187.109375 288.410156 186.636719 287.847656 C 186.472656 287.644531 186.238281 286.960938 186.117188 286.316406 C 185.914062 285.203125 185.703125 284.296875 185.191406 282.320312 C 185.066406 281.820312 185.019531 281.195312 185.089844 280.9375 C 185.15625 280.671875 185.105469 280.324219 184.980469 280.160156 C 184.710938 279.8125 184.722656 278.078125 185 277.632812 C 185.113281 277.449219 185.039062 277.273438 184.808594 277.1875 C 184.601562 277.109375 184.433594 276.816406 184.433594 276.535156 C 184.433594 275.660156 185.148438 276.617188 185.3125 277.714844 C 185.394531 278.230469 185.65625 278.878906 185.902344 279.144531 C 186.300781 279.589844 187.160156 282.296875 187.050781 282.785156 C 187.027344 282.894531 187.183594 283.382812 187.402344 283.867188 C 188 285.214844 188.183594 286.722656 187.777344 286.976562 C 187.507812 287.140625 187.5 287.277344 187.738281 287.660156 C 188.035156 288.136719 187.785156 289.40625 187.289062 289.949219 C 186.949219 290.324219 187.050781 290.667969 187.597656 291.011719 C 188.027344 291.277344 188.140625 291.277344 188.316406 291.011719 C 188.464844 290.773438 188.519531 290.832031 188.523438 291.214844 C 188.523438 291.503906 188.421875 291.800781 188.296875 291.882812 C 187.941406 292.097656 188.304688 292.777344 188.695312 292.625 C 188.898438 292.546875 189.292969 292.792969 189.652344 293.210938 C 190.027344 293.664062 190.484375 293.933594 190.863281 293.933594 C 191.386719 293.933594 191.449219 294.011719 191.320312 294.535156 C 191.207031 294.976562 191.265625 295.136719 191.535156 295.136719 C 191.734375 295.136719 191.898438 294.929688 191.898438 294.675781 C 191.898438 294.421875 191.960938 294.054688 192.035156 293.859375 C 192.105469 293.667969 192.003906 293.355469 191.808594 293.15625 C 191.488281 292.835938 191.488281 292.734375 191.800781 292.289062 C 192.007812 291.988281 192.09375 291.546875 192.007812 291.203125 C 191.925781 290.882812 191.980469 290.546875 192.121094 290.457031 C 192.824219 290.019531 191.675781 286.390625 190.273438 284.632812 C 189.597656 283.777344 189.539062 283.605469 189.855469 283.347656 C 190.269531 283 190.328125 282.117188 189.957031 281.746094 C 189.773438 281.558594 189.875 281.441406 190.3125 281.332031 C 190.742188 281.222656 190.929688 281.015625 190.933594 280.640625 C 190.9375 279.0625 191.074219 278.644531 191.734375 278.230469 C 192.203125 277.933594 192.382812 277.640625 192.335938 277.269531 C 192.285156 276.929688 192.382812 276.734375 192.621094 276.734375 C 193.046875 276.730469 193.101562 276.609375 193.101562 275.652344 C 193.101562 275.171875 192.984375 274.929688 192.742188 274.929688 C 192.414062 274.929688 192.359375 274.824219 192.390625 274.265625 C 192.394531 274.167969 192.617188 274.121094 192.875 274.164062 C 193.171875 274.210938 193.34375 274.097656 193.34375 273.863281 C 193.34375 273.65625 193.425781 273.496094 193.527344 273.511719 C 193.625 273.53125 193.789062 273.515625 193.886719 273.484375 C 194.199219 273.382812 194.542969 273.304688 194.816406 273.277344 C 194.984375 273.257812 195.023438 273.007812 194.921875 272.597656 C 194.792969 272.09375 194.828125 272.007812 195.074219 272.203125 C 195.554688 272.582031 196.460938 272.75 196.617188 272.492188 C 197.230469 271.503906 196.847656 262.34375 196.09375 260.070312 C 195.859375 259.363281 195.820312 258.753906 195.953125 258.140625 C 196.0625 257.648438 196.0625 256.921875 195.957031 256.527344 C 195.851562 256.128906 195.859375 254.882812 195.984375 253.761719 C 196.109375 252.632812 196.277344 250.578125 196.363281 249.1875 C 196.449219 247.796875 196.613281 246.285156 196.726562 245.824219 C 196.84375 245.355469 196.988281 244.101562 197.054688 243.03125 C 197.214844 240.386719 197.464844 238.535156 197.699219 238.234375 C 197.804688 238.097656 197.898438 237.609375 197.902344 237.152344 C 197.90625 236.691406 197.964844 235.886719 198.023438 235.355469 C 198.082031 234.828125 198.179688 233.71875 198.238281 232.894531 C 198.292969 232.066406 198.445312 231.253906 198.574219 231.089844 C 198.695312 230.925781 198.824219 229.378906 198.855469 227.660156 C 198.914062 223.890625 198.933594 223.710938 199.3125 223.039062 C 199.707031 222.335938 199.957031 220.460938 199.726562 219.910156 C 199.417969 219.179688 199.355469 218.15625 199.621094 218.15625 C 199.761719 218.15625 199.824219 218.074219 199.765625 217.972656 C 199.515625 217.566406 199.378906 214.328125 199.609375 214.183594 C 200.015625 213.933594 199.875 213.40625 199.359375 213.273438 C 198.902344 213.15625 198.875 212.976562 198.914062 210.664062 C 198.941406 209.289062 198.890625 207.46875 198.808594 206.605469 C 198.722656 205.75 198.597656 203.367188 198.527344 201.316406 C 198.460938 199.265625 198.351562 197.453125 198.289062 197.296875 C 198.230469 197.136719 198.28125 196.941406 198.40625 196.863281 C 198.523438 196.792969 198.5625 196.574219 198.492188 196.382812 C 198.414062 196.191406 198.308594 195.25 198.257812 194.285156 C 198.121094 191.851562 198.039062 191.152344 197.847656 190.730469 C 197.554688 190.085938 197.777344 186.328125 198.121094 186.210938 C 198.292969 186.15625 198.496094 186.332031 198.5625 186.597656 C 198.6875 187.070312 200.164062 187.84375 200.9375 187.84375 C 201.128906 187.84375 201.292969 187.984375 201.296875 188.144531 C 201.296875 188.308594 201.683594 188.691406 202.148438 188.996094 C 202.617188 189.300781 203.070312 189.734375 203.152344 189.960938 C 203.460938 190.773438 204.257812 191.660156 204.816406 191.800781 C 205.132812 191.878906 205.390625 192.089844 205.390625 192.261719 C 205.390625 192.4375 206.210938 193.4375 207.210938 194.480469 C 209.953125 197.351562 210.542969 198.144531 211.527344 200.355469 C 211.734375 200.816406 212.007812 201.359375 212.132812 201.558594 C 212.261719 201.757812 212.878906 202.882812 213.511719 204.0625 C 215.714844 208.175781 218.113281 209.417969 219.96875 207.394531 C 221.777344 205.421875 221.617188 196.222656 219.671875 190.25 C 219.382812 189.363281 218.160156 187.640625 217.703125 187.488281 C 217.488281 187.414062 216.839844 186.703125 216.265625 185.917969 C 215.695312 185.121094 215.070312 184.476562 214.886719 184.476562 C 214.703125 184.476562 214.117188 183.910156 213.578125 183.214844 C 212.59375 181.941406 211.847656 181.136719 209.847656 179.214844 C 209.253906 178.636719 208.757812 178.042969 208.757812 177.886719 C 208.757812 177.734375 208.460938 177.324219 208.097656 176.976562 C 207.730469 176.632812 207.21875 176.074219 206.953125 175.730469 C 206.6875 175.382812 205.972656 174.722656 205.359375 174.257812 C 204.746094 173.789062 203.617188 172.507812 202.851562 171.40625 C 202.085938 170.308594 201.15625 169.234375 200.789062 169.023438 C 200.425781 168.8125 199.820312 168.175781 199.457031 167.597656 C 199.089844 167.023438 198.621094 166.355469 198.417969 166.113281 C 198.214844 165.867188 198.046875 165.492188 198.042969 165.269531 C 198.042969 165.046875 197.816406 164.835938 197.546875 164.800781 C 197.042969 164.730469 196.484375 163.632812 196.46875 162.6875 C 196.460938 162.109375 195.558594 161.066406 194.664062 160.601562 C 194.273438 160.398438 193.882812 159.914062 193.726562 159.445312 C 193.386719 158.402344 192.238281 158.042969 191.050781 158.601562 C 190.617188 158.808594 190.160156 158.976562 190.042969 158.976562 C 189.648438 158.976562 187.707031 159.980469 186.839844 160.625 C 186.203125 161.105469 185.71875 161.257812 184.820312 161.261719 C 183.90625 161.261719 183.582031 161.367188 183.371094 161.730469 C 183.226562 161.992188 182.671875 162.582031 182.148438 163.054688 C 181.617188 163.523438 180.839844 164.261719 180.417969 164.691406 C 179.996094 165.121094 179.492188 165.472656 179.300781 165.472656 C 179.109375 165.472656 178.804688 165.648438 178.625 165.867188 C 178.445312 166.082031 177.875 166.542969 177.351562 166.890625 L 175.863281 167.878906 C 175.566406 168.078125 174.203125 168.941406 172.832031 169.800781 C 168.21875 172.695312 165.847656 174.292969 164.988281 175.09375 C 164.132812 175.890625 162.167969 177.257812 161.875 177.257812 C 161.707031 177.257812 161.375 177.457031 161.136719 177.691406 C 160.902344 177.925781 160.273438 178.4375 159.742188 178.824219 C 158.6875 179.601562 158.625 179.648438 157.578125 180.460938 C 156.007812 181.675781 154.515625 182.554688 154.011719 182.554688 C 153.539062 182.558594 152.183594 183.578125 149.984375 185.59375 C 147.960938 187.449219 147.609375 187.761719 147.046875 188.238281 C 146.707031 188.523438 146.394531 188.847656 146.34375 188.960938 C 146.296875 189.078125 145.628906 189.59375 144.871094 190.109375 C 144.109375 190.628906 143.484375 191.144531 143.484375 191.253906 C 143.484375 191.355469 143.117188 191.691406 142.671875 191.992188 C 142.226562 192.289062 141.316406 192.96875 140.648438 193.5 C 139.980469 194.027344 138.882812 194.785156 138.210938 195.183594 C 137.53125 195.578125 136.117188 196.445312 135.066406 197.109375 C 133.976562 197.792969 132.878906 198.46875 131.78125 199.144531 C 131.023438 199.605469 129.972656 200.394531 129.4375 200.914062 C 128.902344 201.421875 128.242188 201.941406 127.964844 202.0625 C 127.097656 202.441406 124.34375 203.996094 124.21875 204.175781 C 123.488281 205.210938 121.324219 205.714844 121.324219 204.851562 C 121.324219 204.546875 121.222656 204.195312 121.097656 204.070312 C 120.972656 203.941406 120.820312 203.140625 120.757812 202.277344 C 120.691406 201.417969 120.519531 200.335938 120.375 199.875 C 119.957031 198.554688 119.894531 196.28125 120.246094 195.289062 C 120.421875 194.789062 120.507812 194.324219 120.433594 194.25 C 120.363281 194.179688 120.269531 193.492188 120.234375 192.722656 C 120.199219 191.960938 120.105469 190.386719 120.023438 189.230469 C 119.894531 187.402344 119.925781 187.121094 120.257812 187.121094 C 120.476562 187.121094 120.921875 186.90625 121.257812 186.640625 C 121.902344 186.136719 122.894531 186.019531 123.472656 186.386719 C 123.675781 186.511719 124.046875 186.511719 124.382812 186.386719 C 124.730469 186.25 125.675781 186.269531 126.8125 186.425781 C 128.203125 186.617188 129.242188 186.609375 130.9375 186.386719 C 132.183594 186.222656 134.675781 186.058594 136.476562 186.023438 C 143.625 185.882812 144.929688 185.808594 144.929688 185.535156 C 144.929688 185.054688 145.542969 184.722656 146.703125 184.5625 C 147.464844 184.457031 147.820312 184.5 147.820312 184.683594 C 147.820312 184.832031 147.667969 184.957031 147.472656 184.957031 C 147.015625 184.957031 146.746094 185.421875 147.03125 185.710938 C 147.316406 185.996094 148.0625 185.730469 148.0625 185.335938 C 148.0625 185.070312 149.152344 184.03125 149.9375 183.550781 C 150.304688 183.320312 150.070312 182.554688 149.628906 182.554688 C 149.179688 182.554688 148.992188 181.890625 149.171875 180.945312 C 149.347656 180 148.851562 179.445312 147.800781 179.4375 C 147.320312 179.429688 147.183594 179.304688 147.199219 178.898438 C 147.214844 178.476562 147.035156 178.335938 146.273438 178.171875 C 145.753906 178.0625 145.214844 177.878906 145.070312 177.765625 C 144.628906 177.421875 143.269531 177.226562 139.871094 177.027344 C 138.085938 176.921875 134.886719 176.710938 132.765625 176.554688 C 130.644531 176.398438 127.558594 176.183594 125.902344 176.078125 C 122.191406 175.839844 119.007812 174.367188 120.375 173.527344 C 120.558594 173.410156 120.539062 173.242188 120.316406 172.96875 C 119.488281 171.925781 119.355469 171.386719 119.40625 169.230469 C 119.4375 168.023438 119.457031 166.695312 119.449219 166.277344 C 119.441406 165.714844 119.5625 165.484375 119.921875 165.390625 C 120.28125 165.296875 120.367188 165.140625 120.246094 164.765625 C 120.046875 164.152344 120.808594 164.074219 121.660156 164.636719 C 122.167969 164.964844 122.269531 164.953125 122.832031 164.515625 C 123.550781 163.953125 123.808594 163.921875 124.46875 164.332031 C 124.855469 164.570312 124.992188 164.570312 125.140625 164.328125 C 125.292969 164.085938 125.488281 164.097656 126.078125 164.394531 C 126.683594 164.695312 127.105469 164.722656 128.289062 164.535156 C 129.089844 164.40625 130.101562 164.351562 130.53125 164.414062 C 131.300781 164.523438 138.601562 164.742188 144.226562 164.828125 C 146.835938 164.867188 147.097656 164.828125 148.203125 164.234375 C 149.378906 163.59375 149.402344 163.59375 154.03125 163.65625 C 158.839844 163.726562 159.445312 163.609375 158.457031 162.808594 C 158.171875 162.578125 157.9375 162.203125 157.9375 161.984375 C 157.9375 161.761719 157.722656 161.523438 157.464844 161.453125 C 157.203125 161.382812 156.929688 161.144531 156.859375 160.914062 C 156.648438 160.257812 155.765625 159.585938 154.324219 158.984375 C 152.90625 158.394531 151.542969 157.402344 151.875 157.199219 C 152.085938 157.066406 154.921875 156.617188 155.527344 156.617188 C 157.839844 156.625 160.078125 156.464844 160.523438 156.261719 C 161.171875 155.96875 161.230469 155.625 160.648438 155.566406 C 160.414062 155.546875 159.84375 155.488281 159.382812 155.449219 C 158.550781 155.367188 149.234375 154.855469 148.0625 154.824219 C 147.730469 154.816406 145.726562 154.839844 143.605469 154.878906 C 136.363281 155 129.109375 154.671875 127.242188 154.128906 C 126.324219 153.863281 125.246094 153.691406 124.839844 153.75 C 124.394531 153.816406 123.792969 153.679688 123.289062 153.398438 C 122.835938 153.140625 122.328125 152.988281 122.164062 153.054688 C 121.992188 153.117188 121.796875 152.960938 121.734375 152.707031 C 121.667969 152.449219 121.453125 152.242188 121.25 152.242188 C 120.8125 152.242188 120.121094 150.582031 120.125 149.53125 C 120.125 148.679688 121.253906 147.671875 122.207031 147.671875 C 122.476562 147.671875 122.890625 147.453125 123.136719 147.1875 C 123.386719 146.914062 123.746094 146.757812 123.976562 146.828125 C 124.191406 146.898438 124.621094 146.742188 124.917969 146.484375 C 125.21875 146.230469 125.804688 145.941406 126.222656 145.851562 C 126.644531 145.757812 127.199219 145.535156 127.464844 145.355469 C 127.722656 145.171875 128.210938 145.027344 128.546875 145.023438 C 129.355469 145.023438 133.53125 143.84375 137.105469 142.597656 C 138.691406 142.042969 140.804688 141.34375 141.796875 141.039062 C 142.796875 140.734375 144.148438 140.308594 144.8125 140.097656 C 145.472656 139.878906 146.445312 139.582031 146.976562 139.433594 C 147.507812 139.285156 148.113281 139.023438 148.320312 138.847656 C 148.53125 138.671875 148.878906 138.53125 149.089844 138.53125 C 149.304688 138.53125 149.539062 138.429688 149.613281 138.308594 C 149.695312 138.183594 150.101562 138.011719 150.535156 137.917969 C 152.394531 137.515625 153.664062 136.714844 157.816406 133.355469 C 158.878906 132.5 159.878906 131.796875 160.042969 131.796875 C 160.210938 131.792969 160.347656 131.703125 160.347656 131.589844 C 160.347656 128.917969 165.054688 127.574219 167.570312 129.523438 C 167.769531 129.675781 168.40625 129.875 168.980469 129.960938 C 169.558594 130.054688 170.316406 130.269531 170.667969 130.449219 C 171.019531 130.632812 172.25 130.859375 173.40625 130.957031 C 174.714844 131.0625 175.613281 131.257812 175.78125 131.460938 C 175.9375 131.644531 176.3125 131.792969 176.621094 131.792969 C 176.925781 131.792969 177.238281 131.890625 177.308594 132.007812 C 177.382812 132.125 177.742188 132.28125 178.105469 132.359375 C 182.296875 133.234375 182.800781 133.285156 187.925781 133.292969 C 193.585938 133.300781 198.769531 133.109375 201.894531 132.773438 C 202.953125 132.65625 204.039062 132.566406 204.300781 132.5625 C 205.652344 132.5625 208.875 132.007812 209.214844 131.722656 C 209.433594 131.542969 210.246094 131.375 211.050781 131.351562 C 211.84375 131.324219 212.816406 131.199219 213.214844 131.070312 C 213.609375 130.945312 214.425781 130.785156 215.023438 130.71875 C 216.730469 130.523438 217.664062 130.3125 217.808594 130.082031 C 217.996094 129.777344 218.730469 129.820312 219.0625 130.152344 C 219.707031 130.796875 220.71875 130.613281 223.261719 129.394531 C 225.507812 128.316406 225.46875 126.714844 223.207031 127.074219 C 222.535156 127.183594 222.070312 127.128906 221.746094 126.902344 C 221.40625 126.660156 220.992188 126.617188 220.253906 126.757812 C 219.316406 126.9375 216.789062 126.839844 216.019531 126.597656 C 215.753906 126.511719 215.746094 126.421875 215.992188 126.128906 C 216.15625 125.929688 216.234375 125.707031 216.15625 125.632812 C 215.9375 125.410156 215.503906 125.769531 215.503906 126.171875 C 215.503906 126.75 214.671875 126.445312 214.585938 125.835938 C 214.523438 125.429688 214.347656 125.296875 213.847656 125.296875 C 212.949219 125.296875 212.417969 124.839844 212.328125 123.980469 C 212.234375 123.097656 211.199219 122.605469 210.4375 123.085938 C 209.832031 123.460938 209.800781 123.457031 209.660156 122.929688 C 209.597656 122.679688 209.101562 122.277344 208.554688 122.023438 C 208.011719 121.777344 207.566406 121.457031 207.5625 121.316406 C 207.542969 120.632812 206.875 120.113281 206.546875 120.523438 C 206.011719 121.199219 204.738281 121.335938 204.550781 120.742188 C 204.328125 120.046875 203.550781 119.695312 202.625 119.867188 C 202.195312 119.949219 201.59375 119.921875 201.289062 119.8125 C 200.902344 119.667969 200.21875 119.78125 198.984375 120.203125 C 197.304688 120.773438 197.191406 120.78125 196.074219 120.417969 C 195.4375 120.214844 193.878906 119.921875 192.621094 119.773438 C 191.363281 119.628906 189.652344 119.347656 188.8125 119.15625 C 187.65625 118.886719 186.46875 118.839844 183.867188 118.960938 C 181.046875 119.085938 180.289062 119.050781 179.601562 118.738281 C 179.148438 118.535156 178.230469 118.242188 177.570312 118.085938 C 176.902344 117.933594 176.199219 117.664062 176.003906 117.484375 C 175.804688 117.308594 175.367188 117.125 175.039062 117.082031 C 174.171875 116.964844 174.082031 115.75 174.867188 114.804688 C 175.644531 113.878906 176.578125 112.164062 176.957031 110.984375 C 177.125 110.457031 177.574219 109.527344 177.957031 108.917969 C 178.339844 108.308594 178.652344 107.699219 178.652344 107.554688 C 178.652344 107.410156 178.910156 106.988281 179.21875 106.613281 C 179.535156 106.238281 180.085938 105.339844 180.445312 104.609375 C 180.808594 103.878906 181.199219 103.097656 181.324219 102.867188 C 181.441406 102.640625 181.539062 102.3125 181.539062 102.148438 C 181.539062 101.980469 181.960938 101.027344 182.476562 100.03125 C 182.992188 99.027344 183.542969 97.570312 183.695312 96.78125 C 183.851562 95.996094 184.074219 95.128906 184.183594 94.867188 C 184.585938 93.941406 185.132812 90.992188 185.519531 87.648438 C 185.96875 83.78125 186.554688 80.535156 186.867188 80.207031 C 186.988281 80.078125 187.082031 79.605469 187.082031 79.148438 C 187.082031 78.695312 187.183594 77.933594 187.304688 77.457031 C 187.742188 75.757812 188.316406 72.566406 188.410156 71.339844 C 188.464844 70.652344 188.632812 69.601562 188.78125 69.003906 C 189.027344 68.039062 188.96875 63.460938 188.675781 60.585938 C 188.628906 60.121094 188.519531 58.988281 188.425781 58.058594 C 188.21875 55.890625 187.644531 52.4375 187.183594 50.601562 C 186.980469 49.808594 186.675781 48.398438 186.5 47.476562 C 185.582031 42.617188 184.578125 39.417969 183.980469 39.417969 C 183.65625 39.417969 183.433594 38.726562 183.332031 37.425781 C 183.175781 35.4375 184.035156 34.546875 187.441406 33.160156 C 188.324219 32.796875 191.980469 31.910156 193.417969 31.707031 C 194.203125 31.597656 195.039062 31.328125 195.285156 31.105469 C 195.585938 30.835938 196.300781 30.667969 197.488281 30.59375 C 198.457031 30.539062 199.84375 30.324219 200.570312 30.125 C 202.984375 29.457031 203.8125 29.289062 204.609375 29.3125 C 205.042969 29.324219 205.855469 29.203125 206.414062 29.054688 C 207.996094 28.625 208.433594 28.570312 211.53125 28.378906 C 215.726562 28.117188 216.257812 27.722656 215.355469 25.558594 C 214.550781 23.625 213.160156 22.800781 210.085938 22.441406 C 209.289062 22.347656 208.242188 22.128906 207.757812 21.960938 C 207.152344 21.75 206.441406 21.710938 205.507812 21.835938 C 204.757812 21.9375 203.144531 21.9375 201.933594 21.839844 C 198.300781 21.546875 193.308594 21.605469 191.03125 21.980469 C 189.851562 22.171875 188.167969 22.328125 187.289062 22.332031 C 186.40625 22.332031 184.648438 22.550781 183.375 22.808594 C 182.105469 23.074219 180.710938 23.339844 180.28125 23.402344 C 179.847656 23.460938 178.84375 23.636719 178.050781 23.785156 C 177.253906 23.933594 176.078125 24.113281 175.429688 24.1875 L 174.253906 24.3125 L 171.578125 21.609375 C 170.101562 20.121094 168.515625 18.621094 168.050781 18.277344 C 167.589844 17.929688 167.101562 17.507812 166.96875 17.34375 C 166.835938 17.171875 166.445312 16.851562 166.097656 16.621094 C 165.167969 16.003906 162.503906 14.023438 161.617188 13.289062 C 160.617188 12.464844 158.566406 11.160156 157.304688 10.554688 C 156.761719 10.292969 156.175781 9.914062 156.011719 9.710938 C 155.847656 9.507812 155.613281 9.347656 155.492188 9.347656 C 155.375 9.347656 154.386719 8.917969 153.296875 8.402344 C 152.207031 7.878906 150.933594 7.28125 150.472656 7.070312 C 150.003906 6.863281 149.359375 6.539062 149.023438 6.355469 C 147.984375 5.761719 146.683594 5.257812 146.207031 5.257812 C 145.953125 5.257812 145.535156 5.097656 145.277344 4.902344 C 145.023438 4.707031 144.589844 4.546875 144.328125 4.539062 C 143.78125 4.527344 142.132812 3.988281 141.886719 3.738281 C 141.792969 3.648438 141.566406 3.574219 141.386719 3.574219 C 141.203125 3.574219 140.023438 3.1875 138.757812 2.714844 C 137.496094 2.238281 135.953125 1.757812 135.335938 1.640625 C 134.71875 1.523438 133.667969 1.320312 133.007812 1.191406 C 128.855469 0.363281 110.621094 -0.398438 110.226562 0.242188 C 110.113281 0.421875 109.914062 0.414062 109.539062 0.214844 C 109.003906 -0.0742188 107.710938 0.0742188 107.203125 0.480469 C 107.042969 0.609375 106.683594 0.601562 106.300781 0.457031 C 105.953125 0.324219 105.046875 0.210938 104.28125 0.203125 C 102.34375 0.179688 96.609375 0.226562 95.3125 0.273438 C 94.714844 0.292969 93.792969 0.234375 93.265625 0.144531 C 92.621094 0.03125 92.101562 0.078125 91.699219 0.296875 M 110.402344 15.175781 C 110.25 15.273438 109.148438 15.355469 107.957031 15.355469 C 106.765625 15.359375 105.433594 15.464844 104.996094 15.585938 C 104.554688 15.714844 103.226562 15.875 102.035156 15.949219 C 100.835938 16.019531 99.550781 16.242188 99.167969 16.441406 C 98.78125 16.640625 98.078125 16.804688 97.601562 16.804688 C 97.125 16.804688 96.40625 16.976562 96.007812 17.179688 C 95.347656 17.519531 95.21875 17.519531 94.707031 17.183594 C 94.210938 16.863281 94.039062 16.859375 93.335938 17.152344 C 92.890625 17.335938 91.355469 17.769531 89.921875 18.113281 C 88.492188 18.460938 86.921875 18.910156 86.4375 19.117188 C 84.789062 19.816406 82.429688 20.605469 81.472656 20.769531 C 79.214844 21.160156 76.984375 22.519531 72.1875 26.4375 C 71.195312 27.246094 69.84375 28.234375 69.179688 28.628906 C 65.558594 30.789062 62.511719 33.59375 61.367188 35.808594 C 61.023438 36.464844 60.339844 37.441406 59.84375 37.976562 C 58.5625 39.363281 57.339844 41.953125 55.574219 46.996094 C 53.914062 51.742188 53.578125 53.347656 52.796875 60.105469 C 52.59375 61.894531 52.3125 63.707031 52.175781 64.140625 C 51.339844 66.742188 52.058594 75.421875 53.660156 82.070312 C 54.550781 85.769531 54.953125 87.015625 55.917969 89.089844 C 56.101562 89.488281 56.542969 90.519531 56.902344 91.378906 C 57.261719 92.242188 57.796875 93.375 58.097656 93.90625 C 58.394531 94.433594 59.105469 95.734375 59.671875 96.789062 C 61.03125 99.335938 64.4375 104.4375 65.855469 106.054688 C 66.144531 106.382812 67.039062 107.4375 67.847656 108.394531 C 69.804688 110.714844 77.347656 118.195312 78.609375 119.066406 C 79.160156 119.445312 79.925781 120.054688 80.308594 120.421875 C 81.789062 121.839844 86.609375 125.328125 88.328125 126.21875 C 92.03125 128.152344 93.0625 128.640625 94.46875 129.152344 C 95.265625 129.441406 96.128906 129.765625 96.398438 129.871094 C 100.597656 131.59375 111.371094 133.835938 111.636719 133.042969 C 111.691406 132.878906 111.957031 132.816406 112.261719 132.890625 C 113.53125 133.210938 114.074219 132.664062 113.949219 131.199219 C 113.835938 129.867188 113.839844 129.863281 114.570312 129.714844 C 115.175781 129.59375 115.304688 129.453125 115.304688 128.898438 C 115.304688 127.703125 115.519531 127.464844 116.59375 127.46875 C 117.890625 127.472656 117.929688 127.507812 119.152344 129.628906 C 119.726562 130.621094 120.464844 131.660156 120.785156 131.941406 C 121.273438 132.367188 121.332031 132.535156 121.113281 132.945312 C 120.734375 133.652344 123.585938 134.148438 125.902344 133.777344 C 126.761719 133.640625 128.214844 133.511719 129.132812 133.488281 C 130.046875 133.46875 131.101562 133.296875 131.46875 133.105469 C 131.835938 132.914062 132.519531 132.753906 132.976562 132.753906 C 133.441406 132.753906 133.980469 132.59375 134.175781 132.394531 C 134.375 132.195312 134.804688 132.03125 135.128906 132.03125 C 135.453125 132.03125 135.855469 131.871094 136.019531 131.671875 C 136.183594 131.476562 136.515625 131.3125 136.761719 131.3125 C 137.492188 131.3125 141.554688 129.464844 141.554688 129.128906 C 141.554688 129.007812 141.816406 128.90625 142.136719 128.90625 C 142.453125 128.90625 142.765625 128.765625 142.832031 128.589844 C 142.902344 128.417969 143.386719 128.148438 143.914062 127.992188 C 144.441406 127.832031 145.007812 127.539062 145.171875 127.34375 C 145.335938 127.144531 145.714844 126.984375 146.011719 126.984375 C 146.308594 126.984375 146.925781 126.628906 147.382812 126.203125 C 147.84375 125.769531 148.535156 125.269531 148.921875 125.089844 C 149.308594 124.910156 149.898438 124.605469 150.230469 124.417969 C 150.5625 124.230469 151.113281 123.960938 151.460938 123.832031 C 151.878906 123.671875 152.242188 123.226562 152.539062 122.519531 C 152.933594 121.558594 153.058594 121.449219 153.769531 121.449219 C 154.601562 121.449219 154.871094 121.0625 154.140625 120.925781 C 153.914062 120.878906 153.722656 120.625 153.722656 120.363281 C 153.722656 119.890625 153.125 119.761719 152.15625 120.027344 C 151.886719 120.101562 151.796875 119.917969 151.792969 119.285156 C 151.785156 118.316406 151.253906 117.421875 149.839844 115.984375 C 149.289062 115.429688 148.542969 114.453125 148.175781 113.820312 C 147.8125 113.1875 147.328125 112.453125 147.101562 112.1875 C 146.636719 111.65625 146.167969 110.800781 145.4375 109.183594 C 143.109375 104.007812 142.601562 100.890625 142.554688 91.398438 C 142.539062 87.613281 142.460938 81.652344 142.382812 78.148438 C 142.308594 74.550781 142.351562 71.089844 142.476562 70.207031 C 143.488281 63.320312 146.945312 53.957031 150.265625 49.117188 C 150.640625 48.5625 150.953125 48.011719 150.953125 47.890625 C 150.953125 47.769531 151.230469 47.355469 151.578125 46.972656 C 151.921875 46.589844 152.398438 45.851562 152.640625 45.339844 C 152.875 44.824219 153.390625 44.121094 153.78125 43.777344 C 154.476562 43.164062 156.425781 41.007812 157.757812 39.382812 C 159.332031 37.464844 159.625 37.042969 159.625 36.695312 C 159.625 36.492188 159.921875 36.109375 160.285156 35.839844 C 160.945312 35.351562 160.945312 35.347656 160.527344 34.597656 C 160.292969 34.183594 160.160156 33.746094 160.230469 33.632812 C 160.492188 33.214844 158.179688 30.292969 157.578125 30.277344 C 157.445312 30.273438 156.847656 29.808594 156.246094 29.25 C 154.925781 28.015625 150.875 25.332031 148.9375 24.410156 C 148.160156 24.039062 146.945312 23.367188 146.234375 22.917969 C 145.527344 22.464844 144.878906 22.097656 144.792969 22.097656 C 144.605469 22.097656 140.832031 19.992188 139.148438 18.953125 C 138.378906 18.476562 137.40625 18.183594 135.773438 17.925781 C 133.613281 17.585938 132.089844 17.324219 126.984375 16.449219 C 124.699219 16.058594 124.183594 15.988281 120.722656 15.613281 C 116.230469 15.117188 115.121094 15.035156 112.933594 15.015625 C 111.695312 15.007812 110.554688 15.082031 110.402344 15.175781 M 157.699219 36.769531 C 157.699219 36.949219 157.769531 37.019531 157.855469 36.929688 C 157.898438 36.886719 157.921875 36.832031 157.921875 36.769531 C 157.921875 36.707031 157.898438 36.65625 157.855469 36.609375 C 157.769531 36.523438 157.699219 36.59375 157.699219 36.769531 M 168.050781 46.523438 C 167.921875 46.859375 167.429688 47.535156 166.949219 48.023438 C 166.46875 48.515625 165.921875 49.214844 165.734375 49.582031 C 165.546875 49.945312 165.289062 50.242188 165.164062 50.242188 C 165.035156 50.242188 164.710938 50.667969 164.449219 51.191406 C 164.179688 51.710938 163.597656 52.417969 163.152344 52.761719 C 162.128906 53.539062 160.671875 55.605469 159.507812 57.941406 C 159.011719 58.933594 158.5 59.949219 158.367188 60.207031 C 158.234375 60.457031 157.925781 61.21875 157.6875 61.890625 C 157.445312 62.5625 156.976562 63.761719 156.644531 64.558594 C 153.300781 72.578125 152.347656 91.152344 155.011719 96.363281 C 155.296875 96.917969 155.53125 97.511719 155.535156 97.683594 C 155.570312 99.4375 160.632812 107.886719 162.121094 108.683594 C 162.78125 109.035156 163.480469 108.738281 163.480469 108.101562 C 163.480469 107.929688 163.644531 107.660156 163.84375 107.492188 C 164.046875 107.324219 164.164062 107.140625 164.109375 107.085938 C 164.007812 106.984375 164.855469 104.53125 165.832031 102.085938 C 166.097656 101.425781 166.445312 100.230469 166.609375 99.441406 C 166.769531 98.640625 167 97.875 167.117188 97.726562 C 167.453125 97.3125 169.476562 86.394531 169.492188 84.929688 C 169.496094 84.488281 169.652344 83.625 169.832031 83.003906 C 170.015625 82.386719 170.292969 81.175781 170.457031 80.324219 C 170.613281 79.46875 170.910156 78.449219 171.113281 78.054688 C 171.371094 77.558594 171.441406 76.980469 171.34375 76.171875 C 171.269531 75.53125 171.269531 74.847656 171.34375 74.652344 C 171.558594 74.089844 171.90625 74.242188 171.90625 74.902344 C 171.90625 75.230469 172.019531 75.5 172.148438 75.5 C 172.472656 75.5 172.453125 74.148438 172.117188 73.214844 C 171.792969 72.328125 172.113281 71.054688 172.648438 71.054688 C 172.921875 71.054688 172.976562 71.453125 172.898438 73.09375 C 172.816406 75.078125 172.449219 76.664062 172.222656 76.042969 C 172.160156 75.875 172.007812 75.742188 171.882812 75.742188 C 171.492188 75.742188 171.65625 76.378906 172.175781 76.847656 C 172.824219 77.433594 172.707031 80.082031 171.957031 81.789062 C 171.484375 82.871094 171.480469 82.917969 171.90625 83.027344 C 172.648438 83.222656 172.417969 86.738281 171.457031 89.878906 C 170.984375 91.414062 170.859375 94.695312 171.292969 94.160156 C 171.5 93.90625 171.667969 93.519531 171.667969 93.316406 C 171.667969 93.113281 171.890625 92.347656 172.171875 91.621094 C 172.445312 90.890625 172.710938 89.703125 172.765625 88.972656 C 172.8125 88.246094 173.03125 87 173.234375 86.207031 C 173.449219 85.414062 173.675781 83.84375 173.742188 82.71875 C 173.808594 81.589844 174.019531 79.894531 174.210938 78.949219 C 174.398438 77.996094 174.507812 77.074219 174.449219 76.902344 C 174.351562 76.601562 174.089844 73.652344 173.976562 71.535156 C 173.84375 69.117188 173.875 69.214844 173.367188 69.535156 C 173.113281 69.691406 172.84375 70.042969 172.777344 70.304688 C 172.558594 71.136719 172.414062 70.609375 172.558594 69.523438 C 172.671875 68.6875 172.78125 68.511719 173.125 68.597656 C 173.414062 68.675781 173.585938 68.542969 173.660156 68.195312 C 173.71875 67.910156 173.851562 67.496094 173.949219 67.261719 C 174.085938 66.9375 174.011719 66.84375 173.632812 66.84375 C 172.953125 66.84375 172.894531 66.660156 173.117188 65.277344 C 173.332031 63.910156 173.0625 63.371094 172.519531 64.085938 C 172.207031 64.507812 172.175781 64.355469 172.246094 62.566406 C 172.289062 61.46875 172.230469 60.519531 172.117188 60.449219 C 172 60.375 171.90625 59.835938 171.90625 59.25 C 171.90625 58.664062 171.8125 58.179688 171.695312 58.179688 C 171.460938 58.179688 171.140625 56.523438 171.320312 56.230469 C 171.5625 55.84375 172.164062 56.308594 172.023438 56.769531 C 171.871094 57.238281 172.25 57.398438 172.511719 56.980469 C 172.726562 56.625 173.113281 56.6875 173.113281 57.074219 C 173.113281 57.257812 172.949219 57.472656 172.75 57.546875 C 172.292969 57.722656 172.285156 58.277344 172.738281 58.652344 C 172.988281 58.863281 173.027344 59.097656 172.871094 59.503906 C 172.578125 60.269531 172.667969 61.066406 173.042969 61.066406 C 173.230469 61.066406 173.351562 61.367188 173.351562 61.8125 C 173.351562 62.222656 173.574219 62.867188 173.839844 63.242188 C 174.148438 63.671875 174.28125 64.140625 174.203125 64.484375 C 174.035156 65.195312 174.429688 65.859375 174.800781 65.492188 C 175.363281 64.929688 175.097656 58.554688 174.492188 58.148438 C 174.363281 58.0625 174.339844 57.566406 174.433594 57 C 174.554688 56.265625 174.5 55.84375 174.21875 55.414062 C 174.007812 55.09375 173.832031 54.566406 173.832031 54.238281 C 173.832031 53.433594 173.601562 52.890625 173.246094 52.890625 C 173.058594 52.890625 172.992188 52.632812 173.0625 52.164062 C 173.121094 51.765625 173.042969 51.292969 172.894531 51.113281 C 172.746094 50.933594 172.691406 50.605469 172.773438 50.390625 C 172.855469 50.175781 172.800781 50 172.65625 50 C 172.511719 50 172.390625 49.773438 172.390625 49.496094 C 172.390625 49.003906 172.371094 49 171.765625 49.394531 C 170.964844 49.914062 170.832031 49.753906 170.882812 48.367188 C 170.933594 47.246094 170.921875 47.230469 169.734375 46.574219 C 168.277344 45.769531 168.335938 45.769531 168.050781 46.523438 M 172.679688 54.355469 C 172.253906 55.726562 172.304688 56.0625 172.914062 55.972656 C 173.355469 55.90625 173.449219 55.71875 173.507812 54.773438 C 173.585938 53.320312 173.082031 53.0625 172.679688 54.355469 M 171.207031 55.195312 C 171.214844 55.472656 171.273438 55.53125 171.351562 55.339844 C 171.417969 55.164062 171.410156 54.957031 171.328125 54.878906 C 171.25 54.800781 171.195312 54.941406 171.207031 55.195312 M 172.390625 67.800781 C 172.390625 67.933594 172.542969 68.042969 172.734375 68.042969 C 172.925781 68.042969 173.148438 67.933594 173.234375 67.800781 C 173.316406 67.671875 173.15625 67.5625 172.886719 67.5625 C 172.609375 67.5625 172.390625 67.671875 172.390625 67.800781 M 170.753906 95.234375 C 170.59375 95.492188 170.460938 95.894531 170.457031 96.125 C 170.457031 96.359375 170.082031 97.472656 169.621094 98.59375 C 168.699219 100.84375 168.566406 101.472656 169.109375 101.023438 C 169.289062 100.875 169.507812 100.417969 169.585938 100.015625 C 169.667969 99.609375 169.878906 98.933594 170.0625 98.515625 C 171 96.3125 171.476562 94.085938 170.753906 95.234375 M 58.699219 99.648438 C 58.699219 99.726562 60.457031 103.070312 61.589844 105.148438 C 61.859375 105.648438 62.230469 106.050781 62.414062 106.050781 C 62.59375 106.050781 62.808594 106.304688 62.882812 106.613281 C 62.960938 106.921875 63.515625 107.679688 64.117188 108.296875 C 64.769531 108.96875 65.203125 109.636719 65.203125 109.972656 C 65.203125 110.996094 73.25 118.542969 73.78125 118.015625 C 73.882812 117.917969 71.640625 115.574219 70.136719 114.203125 C 69 113.164062 66.890625 110.675781 66.890625 110.371094 C 66.890625 110.253906 66.734375 110.21875 66.539062 110.289062 C 66.304688 110.378906 66.074219 110.140625 65.824219 109.546875 C 65.621094 109.0625 64.859375 108.007812 64.128906 107.195312 C 63.394531 106.390625 62.796875 105.652344 62.796875 105.554688 C 62.796875 105.207031 60.617188 101.855469 60.265625 101.660156 C 60.066406 101.550781 59.90625 101.25 59.90625 100.992188 C 59.90625 100.515625 59.226562 99.558594 58.890625 99.558594 C 58.785156 99.558594 58.699219 99.597656 58.699219 99.648438 M 74.234375 118.558594 C 74.402344 118.828125 75.320312 119.363281 75.320312 119.191406 C 75.320312 119.128906 75.152344 118.910156 74.941406 118.699219 C 74.527344 118.285156 74 118.179688 74.234375 118.558594 M 76.050781 119.664062 C 76.046875 119.804688 76.285156 120.144531 76.585938 120.414062 C 77.308594 121.074219 78.210938 121.527344 78.210938 121.230469 C 78.210938 121.105469 77.964844 120.929688 77.667969 120.835938 C 77.371094 120.746094 76.886719 120.386719 76.59375 120.035156 C 76.300781 119.6875 76.054688 119.523438 76.050781 119.664062 M 210.242188 125.03125 C 210.03125 125.160156 210.003906 125.292969 210.160156 125.390625 C 210.460938 125.574219 211.171875 125.324219 211.171875 125.035156 C 211.171875 124.761719 210.667969 124.761719 210.242188 125.03125 M 213.140625 126.035156 C 213.191406 126.179688 213.304688 126.289062 213.402344 126.277344 C 213.5 126.269531 213.746094 126.261719 213.953125 126.261719 C 214.160156 126.261719 214.261719 126.152344 214.179688 126.023438 C 213.980469 125.695312 213.03125 125.714844 213.140625 126.035156 M 118.269531 133.144531 C 118.101562 133.585938 118.136719 133.613281 119.117188 133.800781 C 119.777344 133.925781 119.902344 133.886719 119.839844 133.550781 C 119.730469 133 118.457031 132.667969 118.269531 133.144531 M 184.613281 179.964844 C 184.425781 180.441406 183.703125 180.523438 183.292969 180.113281 C 182.902344 179.726562 182.238281 180.039062 182.425781 180.527344 C 182.542969 180.839844 182.472656 180.886719 182.089844 180.769531 C 181.597656 180.613281 179.847656 181.578125 178.292969 182.855469 C 177.894531 183.1875 176.863281 183.832031 176.003906 184.285156 C 173.714844 185.5 169.929688 188.035156 169.261719 188.804688 C 169.191406 188.878906 168.21875 189.5625 167.089844 190.3125 C 165.964844 191.066406 164.503906 192.175781 163.839844 192.789062 C 163.171875 193.398438 162 194.292969 161.222656 194.777344 C 160.539062 195.207031 159.855469 195.640625 159.175781 196.074219 C 158.730469 196.359375 158.277344 196.632812 157.816406 196.890625 C 157.417969 197.113281 156.769531 197.554688 156.367188 197.871094 C 155.351562 198.691406 152.289062 201.101562 151.492188 201.703125 C 150.917969 202.144531 147.203125 204.699219 141.988281 208.238281 C 139.484375 209.9375 137.945312 211.238281 137.945312 211.652344 C 137.945312 211.867188 135.457031 213.585938 135.144531 213.585938 C 135.015625 213.585938 134.683594 214.207031 134.414062 214.96875 C 134.054688 215.980469 133.789062 216.375 133.421875 216.425781 C 130.421875 216.871094 131.042969 222.429688 134.277344 224.109375 C 138.617188 226.367188 140.523438 227.40625 140.910156 227.742188 C 141.238281 228.023438 141.449219 228.050781 141.75 227.859375 C 142.242188 227.554688 143.722656 228.542969 143.738281 229.191406 C 143.742188 229.40625 144.363281 230.015625 145.117188 230.546875 C 145.867188 231.074219 146.921875 231.894531 147.449219 232.371094 C 148.476562 233.289062 150.003906 234.386719 153.359375 236.625 C 154.488281 237.375 156.136719 238.53125 157.027344 239.195312 C 157.921875 239.863281 159.636719 241.050781 160.84375 241.835938 C 162.050781 242.625 163.128906 243.492188 163.234375 243.769531 C 163.441406 244.3125 165.921875 246.542969 166.320312 246.542969 C 166.449219 246.542969 166.621094 246.703125 166.695312 246.902344 C 166.773438 247.101562 167.046875 247.265625 167.308594 247.265625 C 167.566406 247.265625 167.839844 247.457031 167.917969 247.695312 C 167.992188 247.929688 168.355469 248.296875 168.71875 248.515625 C 169.078125 248.730469 170.167969 249.671875 171.128906 250.613281 C 172.097656 251.546875 173.320312 252.59375 173.851562 252.929688 C 174.386719 253.265625 174.882812 253.699219 174.957031 253.890625 C 175.03125 254.085938 175.339844 254.238281 175.636719 254.238281 C 175.9375 254.238281 176.320312 254.402344 176.484375 254.597656 C 176.820312 255.003906 177.207031 255.078125 177.207031 254.738281 C 177.207031 254.613281 176.996094 254.445312 176.738281 254.367188 C 176.476562 254.28125 176.199219 254.003906 176.117188 253.75 C 176.039062 253.492188 175.703125 253.210938 175.375 253.128906 C 174.933594 253.019531 174.847656 252.902344 175.039062 252.679688 C 175.222656 252.453125 175.171875 252.34375 174.839844 252.257812 C 174.289062 252.113281 173.046875 249.976562 173.390625 249.765625 C 173.683594 249.585938 175.1875 250.980469 175.648438 251.859375 C 175.832031 252.207031 176.300781 252.621094 176.695312 252.785156 C 177.507812 253.121094 178.753906 254.832031 178.558594 255.34375 C 178.484375 255.53125 178.527344 255.683594 178.652344 255.683594 C 178.777344 255.683594 179.441406 256.230469 180.128906 256.894531 C 182.097656 258.796875 182.328125 258.269531 182.246094 252.015625 C 182.21875 249.835938 182.367188 246.730469 182.621094 244.375 C 183.128906 239.589844 183.085938 226.335938 182.558594 225.808594 C 182.210938 225.464844 182.160156 223.300781 182.496094 223.09375 C 182.636719 223.007812 182.539062 222.582031 182.269531 222.054688 C 181.285156 220.144531 181.140625 213.8125 182.085938 214.125 C 182.511719 214.265625 182.890625 216.179688 182.558594 216.511719 C 182.40625 216.667969 182.378906 216.972656 182.5 217.28125 C 183.242188 219.210938 183.449219 220.597656 183.109375 221.375 C 182.964844 221.710938 182.996094 221.800781 183.246094 221.71875 C 183.765625 221.546875 184.601562 217.117188 184.203125 216.652344 C 184.117188 216.554688 184.234375 215.363281 184.460938 214.003906 C 184.820312 211.882812 184.828125 211.503906 184.535156 211.273438 C 184.050781 210.894531 184.0625 207.976562 184.550781 207.574219 C 184.808594 207.359375 184.839844 207.160156 184.664062 206.835938 C 184.535156 206.585938 184.484375 205.617188 184.5625 204.632812 C 184.84375 200.9375 184.957031 198.945312 185.03125 196.503906 C 185.074219 195.113281 185.125 193.925781 185.15625 193.859375 C 185.207031 193.734375 185.367188 191.53125 185.429688 190.007812 C 185.5 188.261719 185.296875 185.199219 185.105469 185.199219 C 184.757812 185.199219 183.953125 186.738281 183.953125 187.414062 C 183.953125 187.820312 183.769531 188.167969 183.46875 188.324219 C 183.074219 188.539062 182.988281 188.828125 182.984375 189.960938 C 182.984375 191.355469 182.421875 192.898438 181.84375 193.082031 C 181.398438 193.226562 181.449219 190.644531 181.925781 189.167969 C 182.597656 187.054688 182.75 186.5 182.75 186.078125 C 182.75 185.847656 183.003906 185.152344 183.320312 184.53125 C 183.636719 183.90625 184.015625 182.800781 184.171875 182.082031 C 184.324219 181.359375 184.566406 180.691406 184.707031 180.605469 C 184.847656 180.519531 184.921875 180.246094 184.871094 180 C 184.789062 179.578125 184.769531 179.574219 184.613281 179.964844 M 77.085938 182.710938 C 77.128906 182.753906 77.183594 182.777344 77.246094 182.777344 C 77.3125 182.777344 77.363281 182.753906 77.410156 182.710938 C 77.496094 182.625 77.425781 182.554688 77.246094 182.554688 C 77.070312 182.554688 77 182.625 77.085938 182.710938 M 75.230469 182.960938 C 75.070312 183.121094 74.25 183.261719 70.8125 183.703125 C 69.988281 183.8125 69.257812 183.957031 69.1875 184.027344 C 69.011719 184.207031 71.253906 185.636719 72.234375 185.964844 C 72.675781 186.113281 73.335938 186.445312 73.707031 186.703125 C 74.53125 187.28125 76.730469 187.886719 77.320312 187.703125 C 77.558594 187.625 77.914062 187.703125 78.113281 187.863281 C 78.390625 188.09375 78.539062 188.09375 78.761719 187.875 C 78.96875 187.664062 78.972656 187.535156 78.78125 187.414062 C 78.636719 187.320312 78.441406 186.996094 78.347656 186.699219 C 78.195312 186.210938 78.027344 186.160156 76.628906 186.160156 C 75.566406 186.160156 75.070312 186.066406 75.050781 185.859375 C 75.035156 185.695312 75.007812 185.398438 74.992188 185.199219 C 74.96875 184.960938 74.648438 184.8125 74.058594 184.761719 C 72.492188 184.632812 73.597656 183.757812 75.316406 183.757812 C 76.132812 183.757812 76.765625 183.421875 76.765625 182.984375 C 76.765625 182.75 75.464844 182.730469 75.230469 182.960938 M 99.890625 185.929688 C 99.425781 186.042969 98.34375 186.125 97.480469 186.117188 C 95.703125 186.089844 93.878906 186.347656 93.472656 186.679688 C 93.300781 186.8125 92.652344 186.804688 91.785156 186.660156 C 90.855469 186.5 89.925781 186.34375 88.996094 186.183594 C 88.128906 186.035156 87.332031 186.03125 86.832031 186.175781 C 86.398438 186.300781 85.671875 186.402344 85.222656 186.402344 C 84.636719 186.402344 84.097656 186.648438 83.339844 187.273438 C 82.441406 188.003906 82.082031 188.148438 81.027344 188.175781 C 80.144531 188.195312 79.6875 188.328125 79.464844 188.625 C 79.289062 188.855469 78.980469 189.046875 78.777344 189.046875 C 78.578125 189.046875 78.453125 189.164062 78.496094 189.304688 C 78.546875 189.449219 78.691406 189.566406 78.820312 189.566406 C 78.949219 189.566406 79.226562 189.71875 79.4375 189.90625 C 79.644531 190.09375 79.894531 190.167969 79.992188 190.070312 C 80.09375 189.972656 80.277344 190.082031 80.410156 190.3125 C 80.539062 190.539062 80.765625 190.730469 80.910156 190.730469 C 81.058594 190.730469 81.726562 191.160156 82.40625 191.675781 C 83.078125 192.199219 84.390625 192.960938 85.316406 193.378906 C 86.242188 193.792969 87.164062 194.277344 87.363281 194.445312 C 87.5625 194.617188 89.023438 195.277344 90.617188 195.898438 C 92.207031 196.53125 93.636719 197.148438 93.796875 197.273438 C 93.957031 197.402344 94.183594 197.453125 94.300781 197.375 C 94.417969 197.304688 94.824219 197.5625 95.203125 197.957031 C 95.578125 198.347656 96.023438 198.671875 96.191406 198.671875 C 96.363281 198.671875 96.613281 198.886719 96.757812 199.152344 C 96.902344 199.417969 97.140625 199.628906 97.289062 199.628906 C 97.4375 199.628906 97.730469 199.785156 97.945312 199.972656 C 98.476562 200.445312 100.617188 201.558594 101 201.558594 C 101.179688 201.558594 101.835938 202.039062 102.472656 202.632812 C 103.105469 203.222656 103.945312 203.773438 104.34375 203.859375 C 104.746094 203.941406 105.285156 204.195312 105.546875 204.414062 C 106.628906 205.3125 107.578125 205.871094 107.695312 205.683594 C 108.113281 205.003906 108.277344 203.207031 108.058594 201.632812 C 107.875 200.324219 107.898438 199.417969 108.15625 197.902344 C 108.339844 196.804688 108.441406 195.175781 108.375 194.277344 C 108.304688 193.234375 108.363281 192.53125 108.542969 192.316406 C 109.21875 191.503906 109.078125 188.753906 108.308594 187.796875 C 107.917969 187.3125 107.59375 186.742188 107.59375 186.535156 C 107.59375 186.054688 107.210938 186.046875 107.027344 186.519531 C 106.839844 187.007812 106.484375 186.976562 105.914062 186.40625 C 105.589844 186.082031 105.148438 185.941406 104.527344 185.964844 C 104.035156 185.984375 102.972656 185.933594 102.179688 185.859375 C 101.382812 185.785156 100.355469 185.816406 99.890625 185.929688 M 146.28125 186.300781 C 146.191406 186.535156 146.242188 186.644531 146.421875 186.589844 C 146.78125 186.464844 146.980469 185.921875 146.664062 185.921875 C 146.53125 185.921875 146.363281 186.09375 146.28125 186.300781 M 58.808594 192.910156 C 58.359375 193.644531 61.046875 195.128906 61.757812 194.542969 C 62.253906 194.128906 62.148438 193.976562 60.898438 193.296875 C 59.632812 192.605469 59.066406 192.503906 58.808594 192.910156 M 181.304688 194.335938 C 180.941406 195.015625 181.195312 195.273438 181.71875 194.75 C 182.015625 194.449219 182.054688 194.273438 181.855469 194.074219 C 181.65625 193.878906 181.511719 193.945312 181.304688 194.335938 M 52.917969 194.363281 C 52.917969 194.488281 53.089844 194.996094 53.292969 195.484375 C 53.558594 196.125 53.617188 196.734375 53.5 197.675781 C 53.328125 199.066406 53.695312 199.289062 53.964844 197.953125 C 54.046875 197.550781 54.261719 197.226562 54.445312 197.226562 C 54.671875 197.226562 54.742188 197.421875 54.664062 197.828125 C 54.601562 198.160156 54.453125 198.425781 54.332031 198.425781 C 54.214844 198.425781 54.183594 198.6875 54.261719 199.007812 C 54.347656 199.355469 54.230469 199.898438 53.964844 200.386719 C 53.71875 200.832031 53.503906 201.679688 53.488281 202.277344 C 53.46875 202.875 53.382812 204.171875 53.296875 205.164062 C 53.089844 207.554688 52.769531 239.054688 52.863281 247.746094 C 52.875 249 52.863281 250.460938 52.828125 250.992188 C 52.792969 251.523438 52.851562 252.324219 52.949219 252.785156 C 53.050781 253.238281 53.058594 253.726562 52.96875 253.867188 C 52.882812 254.003906 52.789062 255.214844 52.765625 256.550781 L 52.71875 258.980469 L 53.53125 259.371094 L 54.34375 259.753906 L 55.210938 258.742188 C 55.6875 258.183594 57.507812 256.398438 59.257812 254.769531 C 61.007812 253.144531 62.867188 251.398438 63.398438 250.890625 C 63.929688 250.382812 64.632812 249.832031 64.964844 249.667969 C 65.292969 249.5 66.363281 248.753906 67.339844 248.011719 C 68.3125 247.265625 69.339844 246.507812 69.628906 246.316406 C 69.910156 246.128906 70.699219 245.441406 71.375 244.792969 C 72.058594 244.140625 72.824219 243.480469 73.078125 243.328125 C 77.507812 240.703125 82.371094 236.34375 84.3125 233.25 C 84.539062 232.890625 84.863281 232.589844 85.039062 232.589844 C 85.210938 232.589844 85.777344 231.984375 86.296875 231.242188 C 88.316406 228.382812 90.445312 226.757812 91.480469 227.304688 C 92.496094 227.851562 92.742188 226.796875 92.144531 224.449219 C 92.011719 223.929688 92.820312 223.515625 93.324219 223.839844 C 93.667969 224.0625 93.738281 224.417969 93.691406 225.703125 C 93.632812 227.566406 93.863281 227.699219 95.023438 226.503906 C 95.878906 225.621094 96 225.308594 95.394531 225.539062 C 95.121094 225.644531 95.050781 225.601562 95.171875 225.410156 C 95.269531 225.246094 95.5 225.148438 95.683594 225.1875 C 96.054688 225.257812 97.753906 222.738281 97.550781 222.40625 C 97.324219 222.035156 95.988281 222.46875 95.390625 223.109375 C 94.898438 223.632812 94.753906 223.683594 94.433594 223.421875 C 94.101562 223.140625 94.125 223.046875 94.683594 222.566406 C 96.082031 221.367188 94.625 219.734375 89.894531 217.195312 C 88.15625 216.261719 86.15625 215.019531 82.664062 212.703125 C 82 212.261719 81.375 211.902344 81.269531 211.902344 C 81.167969 211.902344 80.03125 211.21875 78.746094 210.382812 C 77.5625 209.617188 76.382812 208.855469 75.199219 208.097656 C 71.773438 205.914062 70.578125 205.140625 68.226562 203.542969 C 66.816406 202.582031 65.582031 201.792969 65.492188 201.789062 C 65.398438 201.789062 65.054688 201.570312 64.722656 201.300781 C 63.484375 200.300781 61.261719 198.882812 60.007812 198.289062 C 59.289062 197.949219 58.699219 197.582031 58.699219 197.476562 C 58.699219 197.367188 58.433594 197.210938 58.101562 197.128906 C 57.773438 197.046875 57.136719 196.65625 56.6875 196.257812 C 55.769531 195.457031 54.949219 195.328125 54.757812 195.964844 C 54.6875 196.214844 54.652344 196.140625 54.675781 195.777344 C 54.699219 195.449219 54.554688 194.957031 54.359375 194.6875 C 53.996094 194.1875 52.917969 193.941406 52.917969 194.363281 M 62.632812 194.761719 C 62.621094 194.996094 62.535156 195.507812 62.441406 195.90625 C 62.292969 196.570312 62.359375 196.679688 63.199219 197.15625 C 63.707031 197.441406 64.339844 197.871094 64.601562 198.113281 C 65.160156 198.613281 67.054688 199.871094 67.261719 199.871094 C 67.335938 199.871094 67.800781 200.1875 68.289062 200.566406 C 68.777344 200.949219 69.480469 201.328125 69.847656 201.414062 C 70.214844 201.5 70.703125 201.757812 70.9375 201.984375 C 71.566406 202.605469 72.609375 203.242188 73.003906 203.242188 C 73.195312 203.242188 73.402344 203.375 73.460938 203.542969 C 73.636719 204.035156 73.933594 203.558594 73.769531 203.046875 C 73.644531 202.648438 69.460938 199.191406 67.605469 197.945312 C 67.3125 197.75 66.679688 197.285156 66.195312 196.921875 C 62.375 193.996094 62.667969 194.167969 62.632812 194.761719 M 40.875 196.382812 C 40.875 196.449219 40.929688 196.503906 40.996094 196.503906 C 41.0625 196.503906 41.113281 196.449219 41.113281 196.382812 C 41.113281 196.320312 41.0625 196.261719 40.996094 196.261719 C 40.929688 196.261719 40.875 196.320312 40.875 196.382812 M 181.058594 197.464844 C 181.058594 197.644531 181.132812 197.71875 181.222656 197.628906 C 181.261719 197.582031 181.285156 197.53125 181.285156 197.464844 C 181.285156 197.40625 181.261719 197.351562 181.222656 197.308594 C 181.132812 197.21875 181.058594 197.289062 181.058594 197.464844 M 75.082031 204.320312 C 75.082031 204.390625 75.132812 204.441406 75.199219 204.441406 C 75.265625 204.441406 75.320312 204.390625 75.320312 204.320312 C 75.320312 204.257812 75.265625 204.203125 75.199219 204.203125 C 75.132812 204.203125 75.082031 204.257812 75.082031 204.320312 M 181.496094 211.480469 C 181.335938 211.964844 181.636719 213.363281 181.902344 213.363281 C 182.164062 213.363281 182.46875 211.964844 182.3125 211.480469 C 182.257812 211.316406 182.074219 211.179688 181.902344 211.179688 C 181.730469 211.179688 181.546875 211.316406 181.496094 211.480469 M 94.488281 214.535156 C 94.042969 214.699219 94.042969 214.710938 94.46875 214.875 C 94.710938 214.96875 95.015625 214.945312 95.132812 214.824219 C 95.441406 214.511719 95.042969 214.332031 94.488281 214.535156 M 3.542969 226.699219 C 3.542969 226.761719 3.59375 226.816406 3.664062 226.816406 C 3.730469 226.816406 3.785156 226.761719 3.785156 226.699219 C 3.785156 226.628906 3.730469 226.574219 3.664062 226.574219 C 3.59375 226.574219 3.542969 226.628906 3.542969 226.699219 M 89.9375 229.347656 C 89.027344 230.410156 88.914062 231.125 89.726562 230.683594 C 90.539062 230.238281 91.976562 228.753906 91.828125 228.507812 C 91.511719 228 90.832031 228.304688 89.9375 229.347656 M 87.847656 231.507812 C 87.683594 231.703125 87.398438 231.867188 87.214844 231.867188 C 87.03125 231.867188 86.878906 232.03125 86.878906 232.230469 C 86.878906 232.425781 86.964844 232.585938 87.0625 232.582031 C 87.285156 232.574219 88.570312 231.460938 88.570312 231.277344 C 88.570312 231.019531 88.140625 231.152344 87.847656 231.507812 M 166.414062 245.59375 C 166.460938 245.738281 166.605469 245.855469 166.726562 245.855469 C 166.855469 245.855469 166.996094 245.738281 167.042969 245.59375 C 167.089844 245.453125 166.949219 245.339844 166.726562 245.339844 C 166.507812 245.339844 166.367188 245.453125 166.414062 245.59375 M 167.8125 246.101562 C 167.8125 246.53125 169.285156 247.746094 169.8125 247.746094 C 170.070312 247.746094 170.648438 248.070312 171.105469 248.46875 C 171.914062 249.179688 172.390625 249.371094 172.390625 248.988281 C 172.390625 248.714844 168.382812 245.832031 167.992188 245.824219 C 167.894531 245.824219 167.8125 245.945312 167.8125 246.101562 M 192.480469 271.910156 C 192.296875 272.636719 192.523438 273.335938 192.863281 273.125 C 193.171875 272.933594 193.179688 271.632812 192.871094 271.445312 C 192.742188 271.367188 192.570312 271.574219 192.480469 271.910156 M 176.65625 271.878906 C 176.425781 272.476562 176.789062 273.515625 177.359375 273.886719 C 177.667969 274.09375 177.929688 274.359375 177.929688 274.46875 C 177.929688 275.785156 179.949219 277.507812 180.328125 276.515625 C 180.589844 275.832031 181.042969 275.492188 181.105469 275.9375 C 181.128906 276.109375 181.152344 276.738281 181.164062 277.335938 C 181.191406 279.035156 182.03125 278.886719 182.425781 277.109375 C 182.78125 275.503906 182.386719 274.449219 181.429688 274.449219 C 181.109375 274.449219 180.78125 274.335938 180.695312 274.199219 C 179.871094 272.867188 176.925781 271.171875 176.65625 271.878906 M 47.859375 292.371094 C 47.859375 292.433594 47.914062 292.492188 47.980469 292.492188 C 48.046875 292.492188 48.101562 292.433594 48.101562 292.371094 C 48.101562 292.300781 48.046875 292.25 47.980469 292.25 C 47.914062 292.25 47.859375 292.300781 47.859375 292.371094 M 102.203125 320.359375 C 101.75 321.089844 101.585938 322.9375 101.855469 324.382812 C 102.300781 326.796875 102.929688 326.042969 102.992188 323.011719 C 103.035156 320.871094 102.660156 319.613281 102.203125 320.359375 M 114.097656 334.105469 C 114.097656 334.28125 114.171875 334.355469 114.257812 334.265625 C 114.304688 334.222656 114.328125 334.167969 114.328125 334.105469 C 114.328125 334.046875 114.304688 333.992188 114.257812 333.949219 C 114.171875 333.859375 114.097656 333.933594 114.097656 334.105469 M 115.441406 335.523438 C 115.367188 335.644531 115.464844 335.863281 115.648438 336.019531 C 115.835938 336.171875 116.0625 336.722656 116.148438 337.246094 C 116.324219 338.292969 116.671875 338.679688 116.902344 338.085938 C 117.179688 337.351562 115.804688 334.933594 115.441406 335.523438 M 134.574219 386.429688 C 134.574219 386.496094 134.628906 386.550781 134.695312 386.550781 C 134.757812 386.550781 134.8125 386.496094 134.8125 386.429688 C 134.8125 386.367188 134.757812 386.308594 134.695312 386.308594 C 134.628906 386.308594 134.574219 386.367188 134.574219 386.429688 M 134.996094 387.003906 C 134.488281 387.519531 134.445312 388.371094 134.914062 388.550781 C 135.097656 388.628906 135.390625 389.070312 135.566406 389.539062 C 135.734375 390.015625 135.960938 390.398438 136.066406 390.398438 C 136.175781 390.398438 136.261719 390.550781 136.261719 390.734375 C 136.261719 391.046875 136.746094 391.363281 137.234375 391.363281 C 137.617188 391.363281 138.03125 390.359375 137.722656 390.167969 C 137.574219 390.078125 137.40625 389.652344 137.351562 389.21875 C 137.230469 388.273438 136.835938 387.75 136.230469 387.75 C 135.90625 387.75 135.773438 387.578125 135.773438 387.148438 C 135.773438 386.453125 135.578125 386.414062 134.996094 387.003906 "/>
</g>
</svg>
